<?xml version="1.0" encoding="UTF-8" standalone="no"?>
<!DOCTYPE svg PUBLIC "-//W3C//DTD SVG 1.1//EN" "http://www.w3.org/Graphics/SVG/1.1/DTD/svg11.dtd">
<svg version="1.1" xmlns:dc="http://purl.org/dc/elements/1.1/" xmlns:xl="http://www.w3.org/1999/xlink" xmlns="http://www.w3.org/2000/svg" viewBox="2429.7607 47.186455 396.67017 349.1778" width="396.67017" height="349.1778">
  <defs/>
  <g id="Canvas_1" stroke-opacity="1" fill-opacity="1" fill="none" stroke-dasharray="none" stroke="none">
    <title>Canvas 1</title>
    <g id="Canvas_1_Layer_1">
      <title>Layer 1</title>
      <g id="Graphic_37">
        <path d="M 2532.679 59.64793 L 2532.679 59.64793 C 2532.679 59.64793 2532.679 61.57938 2531.7128 61.57938 C 2530.7465 61.57938 2475.668 89.90733 2475.668 89.90733 C 2475.668 89.90733 2430.2525 176.17882 2429.7694 178.7541 C 2429.2862 181.32936 2449.095 277.90192 2451.5108 277.90192 C 2453.9266 277.90192 2566.4992 333.2702 2566.4992 333.2702 L 2529.297 388.63846 C 2529.297 388.63846 2577.1284 396.36426 2577.6115 396.36426 C 2578.0947 396.36426 2635.5888 340.35218 2637.0383 339.70836 C 2638.4877 339.06454 2774.7344 303.6546 2774.7344 303.6546 C 2774.7344 303.6546 2826.4308 221.24602 2826.4308 219.95838 C 2826.4308 218.67075 2809.5208 115.66002 2809.5208 115.0162 C 2809.5208 114.37238 2709.51 70.59282 2709.51 69.949 C 2709.51 69.30519 2627.8585 40.333418 2579.544 48.70304 C 2531.2297 57.07266 2532.679 59.64793 2532.679 59.64793 Z M 2811.3587 191.79969 L 2811.3587 191.79969 C 2811.3587 260.80608 2735.2972 317.3234 2639.1905 321.3809 C 2616.8214 349.79625 2584.0687 381.6456 2550.9604 381.6456 C 2568.143 368.2197 2579.0582 341.05455 2585.6814 317.9469 C 2504.965 304.521 2444.8328 253.0012 2444.8328 191.79969 C 2444.8328 119.98278 2526.799 61.90511 2628.0957 61.90511 C 2729.3925 61.90511 2811.3587 119.98278 2811.3587 191.79969 Z" fill="#ff8080"/>
      </g>
    </g>
  </g>
</svg>
