<?xml version="1.0" encoding="UTF-8" standalone="no"?>
<!DOCTYPE svg PUBLIC "-//W3C//DTD SVG 1.1//EN" "http://www.w3.org/Graphics/SVG/1.1/DTD/svg11.dtd">
<svg version="1.1" xmlns:dc="http://purl.org/dc/elements/1.1/" xmlns:xl="http://www.w3.org/1999/xlink" xmlns="http://www.w3.org/2000/svg" viewBox="37.508894 498.39 394.6434 314.70967" width="394.6434" height="314.70967">
  <defs>
    <filter id="Shadow" filterUnits="userSpaceOnUse" x="-1.9554477" y="466.91903">
      <feGaussianBlur in="SourceAlpha" result="blur" stdDeviation="2.616"/>
      <feOffset in="blur" result="offset" dx="0" dy="2"/>
      <feFlood flood-color="black" flood-opacity=".5" result="flood"/>
      <feComposite in="flood" in2="offset" operator="in" result="color"/>
      <feMerge>
        <feMergeNode in="color"/>
        <feMergeNode in="SourceGraphic"/>
      </feMerge>
    </filter>
  </defs>
  <g id="Canvas_1" stroke-opacity="1" fill-opacity="1" fill="none" stroke-dasharray="none" stroke="none">
    <title>Canvas 1</title>
    <g id="Canvas_1_Layer_1">
      <title>Layer 1</title>
      <g id="Group_86">
        <g id="Graphic_88" filter="url(#Shadow)">
          <path d="M 90.71454 532.5327 C 99.04495 529.326 132.92194 503.67267 134.03266 503.67267 C 135.14339 503.67267 190.67944 515.858 190.67944 515.858 L 286.20146 502.39 L 293.9765 519.0647 C 293.9765 519.0647 388.3878 530.6087 388.94316 530.6087 C 389.4985 530.6087 389.4985 562.6754 389.4985 562.6754 L 426.1523 597.30744 L 401.1611 651.1795 L 378.94667 651.8208 L 361.17513 697.9969 L 310.08196 692.8662 L 240.10653 720.4436 L 212.89386 743.5316 L 201.78665 765.9783 L 131.25586 765.9783 L 118.48257 788.425 L 79.05197 805.0997 C 79.05197 805.0997 54.060745 781.3703 53.505384 782.0116 C 52.950024 782.653 63.501874 747.3796 63.501874 747.3796 L 110.15216 742.2489 C 110.15216 742.2489 124.59153 690.9422 118.48257 689.6595 C 112.3736 688.3769 52.950024 641.5595 52.950024 641.5595 L 43.508894 574.86075 L 44.064255 572.93674 C 44.064255 572.93674 82.38413 535.73937 90.71454 532.5327 Z" fill="white"/>
        </g>
        <g id="Graphic_87">
          <path d="M 72.144145 606.7527 C 40.21804 593.15095 64.70599 548.6719 106.79733 549.88307 C 101.17227 531.12684 153.0573 502.39 195.32698 530.2192 C 200.58793 509.3473 282.22186 504.80926 293.65403 538.6913 C 305.98904 514.4894 399.5976 527.4964 376.92273 570.755 C 413.56734 564.7053 430.62086 637.9119 369.84496 640.0307 C 385.99193 666.3483 326.4867 690.2466 302.72323 674.2132 C 305.807 696.59675 218.548 716.2606 201.67653 680.2629 C 194.96287 702.64645 107.88593 687.8242 121.12748 657.57574 C 95.36516 669.0711 41.66703 632.46624 72.144145 606.7527 Z M 133.64453 739.5549 C 127.65909 746.81265 132.01349 759.8197 151.24049 749.235 C 152.6932 759.8197 178.99796 761.0308 183.8948 749.235 C 198.04662 756.4928 210.02123 747.7203 202.21897 735.9244 C 217.4594 735.0168 211.83433 710.2109 190.97257 719.891 C 196.23352 710.2109 165.0282 701.1348 161.21995 716.8646 C 154.1459 708.3957 135.2793 708.0921 135.63968 722.6139 C 124.02918 718.9834 114.59587 739.2513 133.64453 739.5549 Z M 79.5823 783.4175 C 76.49855 789.4672 96.27542 793.7017 98.08852 784.3251 C 109.15287 787.0479 113.87138 778.5759 106.79733 772.5262 C 113.68932 763.4501 96.81786 758.308 91.55691 766.1729 C 84.66492 757.4004 70.148995 767.0805 75.592 773.1302 C 64.16355 776.7607 72.50825 786.1403 79.5823 783.4175 Z" fill="#c0c0ff" fill-opacity=".481464"/>
        </g>
      </g>
    </g>
  </g>
</svg>
