<?xml version="1.0" encoding="UTF-8" standalone="no"?>
<!DOCTYPE svg PUBLIC "-//W3C//DTD SVG 1.1//EN" "http://www.w3.org/Graphics/SVG/1.1/DTD/svg11.dtd">
<svg xmlns:xl="http://www.w3.org/1999/xlink" xmlns:dc="http://purl.org/dc/elements/1.1/" version="1.1" xmlns="http://www.w3.org/2000/svg" viewBox="493.7063 1179.4514 434.17786 316.11835" width="434.17786" height="316.11835">
  <defs>
    <filter id="Shadow" filterUnits="userSpaceOnUse" x="450.28854" y="1147.8396">
      <feGaussianBlur in="SourceAlpha" result="blur" stdDeviation="2.18"/>
      <feOffset in="blur" result="offset" dx="0" dy="2"/>
      <feFlood flood-color="black" flood-opacity=".5" result="flood"/>
      <feComposite in="flood" in2="offset" operator="in" result="color"/>
      <feMerge>
        <feMergeNode in="color"/>
        <feMergeNode in="SourceGraphic"/>
      </feMerge>
    </filter>
  </defs>
  <g id="Canvas_1" stroke="none" fill-opacity="1" stroke-dasharray="none" stroke-opacity="1" fill="none">
    <title>Canvas 1</title>
    <g id="Canvas_1_Layer_1">
      <title>Layer 1</title>
      <g id="Graphic_40" filter="url(#Shadow)">
        <path d="M 812.8287 1193.3762 L 812.8287 1193.3762 C 812.8287 1193.3762 812.8287 1195.0695 813.862 1195.0695 C 814.8953 1195.0695 873.7933 1219.9041 873.7933 1219.9041 C 873.7933 1219.9041 922.3582 1295.5369 922.8749 1297.7946 C 923.3915 1300.0523 902.2089 1384.7158 899.6257 1384.7158 C 897.0425 1384.7158 776.6633 1433.2562 776.6633 1433.2562 L 816.4453 1481.7967 C 816.4453 1481.7967 765.297 1488.5698 764.7804 1488.5698 C 764.26375 1488.5698 702.78256 1439.4649 701.2326 1438.9005 C 699.6827 1438.336 553.98774 1407.2928 553.98774 1407.2928 C 553.98774 1407.2928 498.7063 1335.0465 498.7063 1333.9177 C 498.7063 1332.7888 516.78903 1242.481 516.78903 1241.9166 C 516.78903 1241.3522 623.7353 1202.9714 623.7353 1202.407 C 623.7353 1201.8425 711.0489 1176.4435 762.7138 1183.781 C 814.3787 1191.1185 812.8287 1193.3762 812.8287 1193.3762 Z M 514.82366 1309.2314 L 514.82366 1309.2314 C 514.82366 1369.7282 596.1597 1419.276 698.9311 1422.8331 C 722.8514 1447.7444 757.8755 1475.6662 793.2797 1475.6662 C 774.9054 1463.8959 763.2333 1440.0807 756.1509 1419.8226 C 842.4647 1408.0523 906.7669 1362.8858 906.7669 1309.2314 C 906.7669 1246.2707 819.1166 1195.355 710.79526 1195.355 C 602.4739 1195.355 514.82366 1246.2707 514.82366 1309.2314 Z" fill="white"/>
      </g>
    </g>
  </g>
</svg>
