<?xml version="1.0" encoding="UTF-8" standalone="no"?>
<!DOCTYPE svg PUBLIC "-//W3C//DTD SVG 1.1//EN" "http://www.w3.org/Graphics/SVG/1.1/DTD/svg11.dtd">
<svg version="1.1" xmlns:dc="http://purl.org/dc/elements/1.1/" xmlns:xl="http://www.w3.org/1999/xlink" xmlns="http://www.w3.org/2000/svg" viewBox="2429.7607 1387.6448 601.23934 349.1778" width="601.23934" height="349.1778">
  <defs/>
  <g id="Canvas_1" stroke-opacity="1" fill-opacity="1" fill="none" stroke-dasharray="none" stroke="none">
    <title>Canvas 1</title>
    <g id="Canvas_1_Layer_1">
      <title>Layer 1</title>
      <g id="Graphic_69">
        <path d="M 2875.005 1400.1063 L 2875.005 1400.1063 C 2875.005 1400.1063 2875.005 1402.0378 2876.4695 1402.0378 C 2877.934 1402.0378 2961.4174 1430.3657 2961.4174 1430.3657 C 2961.4174 1430.3657 3030.2545 1516.6372 3030.987 1519.2125 C 3031.719 1521.7877 3001.6944 1618.3603 2998.033 1618.3603 C 2994.3713 1618.3603 2823.7432 1673.7286 2823.7432 1673.7286 L 2880.131 1729.0968 C 2880.131 1729.0968 2807.6324 1736.8226 2806.9 1736.8226 C 2806.1678 1736.8226 2719.023 1680.8106 2716.826 1680.1667 C 2714.629 1679.523 2508.1178 1644.113 2508.1178 1644.113 C 2508.1178 1644.113 2429.7607 1561.7044 2429.7607 1560.4168 C 2429.7607 1559.1291 2455.3915 1456.1184 2455.3915 1455.4746 C 2455.3915 1454.8308 2606.9796 1411.0512 2606.9796 1410.4074 C 2606.9796 1409.7636 2730.74 1380.7918 2803.971 1389.1614 C 2877.2018 1397.531 2875.005 1400.1063 2875.005 1400.1063 Z M 2452.6057 1532.258 L 2452.6057 1532.258 C 2452.6057 1601.2645 2567.8933 1657.7818 2713.564 1661.8393 C 2747.469 1690.2546 2797.113 1722.104 2847.2957 1722.104 C 2821.2515 1708.678 2804.7073 1681.513 2794.6685 1658.4053 C 2917.0115 1644.9794 3008.155 1593.4596 3008.155 1532.258 C 3008.155 1460.4412 2883.9175 1402.3635 2730.3803 1402.3635 C 2576.8432 1402.3635 2452.6057 1460.4412 2452.6057 1532.258 Z" fill="#dae5d0"/>
      </g>
    </g>
  </g>
</svg>
