<?xml version="1.0" encoding="UTF-8" standalone="no"?>
<!DOCTYPE svg PUBLIC "-//W3C//DTD SVG 1.1//EN" "http://www.w3.org/Graphics/SVG/1.1/DTD/svg11.dtd">
<svg version="1.1" xmlns:dc="http://purl.org/dc/elements/1.1/" xmlns:xl="http://www.w3.org/1999/xlink" xmlns="http://www.w3.org/2000/svg" viewBox="2448.464 545.44945 437.145 306.11835" width="437.145" height="306.11835">
  <defs/>
  <g id="Canvas_1" stroke-opacity="1" fill-opacity="1" fill="none" stroke-dasharray="none" stroke="none">
    <title>Canvas 1</title>
    <g id="Canvas_1_Layer_1">
      <title>Layer 1</title>
      <g id="Graphic_81">
        <path d="M 2561.884 556.3742 L 2561.884 556.3742 C 2561.884 556.3742 2561.884 558.0675 2560.819 558.0675 C 2559.7542 558.0675 2499.0557 582.9021 2499.0557 582.9021 C 2499.0557 582.9021 2449.006 658.5349 2448.4736 660.7926 C 2447.9412 663.0503 2469.7713 747.71385 2472.4336 747.71385 C 2475.0958 747.71385 2599.155 796.2543 2599.155 796.2543 L 2558.1568 844.7947 C 2558.1568 844.7947 2610.8687 851.5678 2611.401 851.5678 C 2611.9335 851.5678 2675.2942 802.4629 2676.8915 801.8985 C 2678.489 801.3341 2828.6377 770.2908 2828.6377 770.2908 C 2828.6377 770.2908 2885.609 698.0446 2885.609 696.9157 C 2885.609 695.7869 2866.9736 605.4791 2866.9736 604.91466 C 2866.9736 604.3502 2756.758 565.9694 2756.758 565.405 C 2756.758 564.8406 2666.775 539.4415 2613.531 546.779 C 2560.2866 554.1165 2561.884 556.3742 2561.884 556.3742 Z M 2868.999 672.22946 L 2868.999 672.22946 C 2868.999 732.7262 2785.1765 782.274 2679.2634 785.8312 C 2654.6118 810.7424 2618.517 838.6642 2582.0306 838.6642 C 2600.9666 826.8939 2612.9955 803.0787 2620.2944 782.8206 C 2531.342 771.05035 2465.074 725.8838 2465.074 672.22946 C 2465.074 609.2688 2555.4038 558.35306 2667.0366 558.35306 C 2778.6693 558.35306 2868.999 609.2688 2868.999 672.22946 Z" fill="#ffc0ff"/>
      </g>
    </g>
  </g>
</svg>
