<?xml version="1.0" encoding="UTF-8" standalone="no"?>
<!DOCTYPE svg PUBLIC "-//W3C//DTD SVG 1.1//EN" "http://www.w3.org/Graphics/SVG/1.1/DTD/svg11.dtd">
<svg version="1.1" xmlns:dc="http://purl.org/dc/elements/1.1/" xmlns:xl="http://www.w3.org/1999/xlink" xmlns="http://www.w3.org/2000/svg" viewBox="14.564007 985.8861 394.6434 314.70967" width="394.6434" height="314.70967">
  <defs>
    <filter id="Shadow" filterUnits="userSpaceOnUse" x="-24.900335" y="954.4151">
      <feGaussianBlur in="SourceAlpha" result="blur" stdDeviation="2.616"/>
      <feOffset in="blur" result="offset" dx="0" dy="2"/>
      <feFlood flood-color="black" flood-opacity=".5" result="flood"/>
      <feComposite in="flood" in2="offset" operator="in" result="color"/>
      <feMerge>
        <feMergeNode in="color"/>
        <feMergeNode in="SourceGraphic"/>
      </feMerge>
    </filter>
  </defs>
  <g id="Canvas_1" stroke-opacity="1" fill-opacity="1" fill="none" stroke-dasharray="none" stroke="none">
    <title>Canvas 1</title>
    <g id="Canvas_1_Layer_1">
      <title>Layer 1</title>
      <g id="Group_47">
        <g id="Graphic_46" filter="url(#Shadow)">
          <path d="M 356.0018 1020.0288 C 347.67137 1016.8221 313.79438 991.1687 312.68366 991.1687 C 311.57294 991.1687 256.03688 1003.3541 256.03688 1003.3541 L 160.51487 989.8861 L 152.73982 1006.5608 C 152.73982 1006.5608 58.328525 1018.1048 57.773164 1018.1048 C 57.217804 1018.1048 57.217804 1050.1715 57.217804 1050.1715 L 20.564007 1084.8035 L 45.55523 1138.6756 L 67.769654 1139.3169 L 85.54119 1185.493 L 136.63436 1180.3623 L 206.6098 1207.9396 L 233.82246 1231.0277 L 244.92967 1253.4744 L 315.46046 1253.4744 L 328.23375 1275.921 L 367.66435 1292.5957 C 367.66435 1292.5957 392.6556 1268.8664 393.21094 1269.5077 C 393.7663 1270.149 383.21445 1234.8757 383.21445 1234.8757 L 336.56416 1229.745 C 336.56416 1229.745 322.1248 1178.4383 328.23375 1177.1556 C 334.3427 1175.873 393.7663 1129.0556 393.7663 1129.0556 L 403.20743 1062.3568 L 402.65207 1060.4328 C 402.65207 1060.4328 364.3322 1023.2354 356.0018 1020.0288 Z" fill="white"/>
        </g>
        <g id="Graphic_45">
          <path d="M 374.57218 1094.2488 C 406.4983 1080.647 382.01033 1036.168 339.919 1037.3791 C 345.54405 1018.6229 293.65902 989.8861 251.38935 1017.7153 C 246.1284 996.8434 164.49446 992.3053 153.06229 1026.1873 C 140.72729 1001.9855 47.11874 1014.9925 69.79359 1058.251 C 33.148978 1052.2014 16.095466 1125.408 76.87136 1127.5268 C 60.724395 1153.8443 120.22963 1177.7427 143.99309 1161.7093 C 140.90934 1184.0928 228.16833 1203.7567 245.0398 1167.759 C 251.75345 1190.1425 338.8304 1175.3203 325.58884 1145.0718 C 351.35116 1156.5672 405.0493 1119.9623 374.57218 1094.2488 Z M 313.0718 1227.051 C 319.05724 1234.3087 314.70283 1247.3157 295.47583 1236.7311 C 294.02313 1247.3157 267.71836 1248.5269 262.82152 1236.7311 C 248.6697 1243.9889 236.6951 1235.2163 244.49735 1223.4205 C 229.25694 1222.5129 234.882 1197.707 255.74375 1207.3871 C 250.4828 1197.707 281.68812 1188.6309 285.49637 1204.3607 C 292.57042 1195.8917 311.43703 1195.5882 311.07664 1210.11 C 322.68715 1206.4795 332.12045 1226.7474 313.0718 1227.051 Z M 367.13402 1270.9136 C 370.21777 1276.9633 350.4409 1281.1978 348.6278 1271.8212 C 337.56346 1274.544 332.84495 1266.072 339.919 1260.0223 C 333.027 1250.9462 349.89846 1245.8041 355.1594 1253.669 C 362.0514 1244.8965 376.56733 1254.5766 371.1243 1260.6263 C 382.55278 1264.2567 374.20807 1273.6364 367.13402 1270.9136 Z" fill="#c0ffff"/>
        </g>
      </g>
    </g>
  </g>
</svg>
