<?xml version="1.0" encoding="UTF-8" standalone="no"?>
<!DOCTYPE svg PUBLIC "-//W3C//DTD SVG 1.1//EN" "http://www.w3.org/Graphics/SVG/1.1/DTD/svg11.dtd">
<svg version="1.1" xmlns:dc="http://purl.org/dc/elements/1.1/" xmlns:xl="http://www.w3.org/1999/xlink" xmlns="http://www.w3.org/2000/svg" viewBox="1983.4134 47.186455 396.67017 349.1778" width="396.67017" height="349.1778">
  <defs/>
  <g id="Canvas_1" stroke-opacity="1" fill-opacity="1" fill="none" stroke-dasharray="none" stroke="none">
    <title>Canvas 1</title>
    <g id="Canvas_1_Layer_1">
      <title>Layer 1</title>
      <g id="Graphic_38">
        <path d="M 2086.3318 59.64793 L 2086.3318 59.64793 C 2086.3318 59.64793 2086.3318 61.57938 2085.3655 61.57938 C 2084.3992 61.57938 2029.3208 89.90733 2029.3208 89.90733 C 2029.3208 89.90733 1983.9052 176.17882 1983.422 178.7541 C 1982.939 181.32936 2002.7478 277.90192 2005.1636 277.90192 C 2007.5793 277.90192 2120.152 333.2702 2120.152 333.2702 L 2082.9498 388.63846 C 2082.9498 388.63846 2130.781 396.36426 2131.2642 396.36426 C 2131.7474 396.36426 2189.2415 340.35218 2190.691 339.70836 C 2192.1404 339.06454 2328.387 303.6546 2328.387 303.6546 C 2328.387 303.6546 2380.0835 221.24602 2380.0835 219.95838 C 2380.0835 218.67075 2363.1735 115.66002 2363.1735 115.0162 C 2363.1735 114.37238 2263.1626 70.59282 2263.1626 69.949 C 2263.1626 69.30519 2181.5112 40.333418 2133.1968 48.70304 C 2084.8824 57.07266 2086.3318 59.64793 2086.3318 59.64793 Z M 2365.0114 191.79969 L 2365.0114 191.79969 C 2365.0114 260.80608 2288.95 317.3234 2192.8432 321.3809 C 2170.474 349.79625 2137.7214 381.6456 2104.613 381.6456 C 2121.7958 368.2197 2132.711 341.05455 2139.334 317.9469 C 2058.6177 304.521 1998.4855 253.0012 1998.4855 191.79969 C 1998.4855 119.98278 2080.4517 61.90511 2181.7485 61.90511 C 2283.0452 61.90511 2365.0114 119.98278 2365.0114 191.79969 Z" fill="#ccc"/>
      </g>
    </g>
  </g>
</svg>
