<?xml version="1.0" encoding="UTF-8" standalone="no"?>
<!DOCTYPE svg PUBLIC "-//W3C//DTD SVG 1.1//EN" "http://www.w3.org/Graphics/SVG/1.1/DTD/svg11.dtd">
<svg xmlns:xl="http://www.w3.org/1999/xlink" xmlns:dc="http://purl.org/dc/elements/1.1/" version="1.1" xmlns="http://www.w3.org/2000/svg" viewBox="491.36744 397.3298 382.8934 302.95967" width="382.8934" height="302.95967">
  <defs/>
  <g id="Canvas_1" stroke="none" fill-opacity="1" stroke-dasharray="none" stroke-opacity="1" fill="none">
    <title>Canvas 1</title>
    <g id="Canvas_1_Layer_1">
      <title>Layer 1</title>
      <g id="Graphic_22">
        <path d="M 826.9302 427.5975 L 826.9302 427.5975 C 835.2606 430.80417 873.5805 468.00155 873.5805 468.00155 L 874.1359 469.92555 L 864.6947 536.6243 C 864.6947 536.6243 805.2712 583.4417 799.1622 584.72434 C 793.0532 586.007 807.4926 637.3137 807.4926 637.3137 L 854.1429 642.4444 C 854.1429 642.4444 864.6947 677.7178 864.1394 677.07645 C 863.584 676.4351 838.5928 700.1645 838.5928 700.1645 L 799.1622 683.4898 L 786.3889 661.0431 L 715.8581 661.0431 L 704.7509 638.5964 L 677.5382 615.5084 L 607.5628 587.931 L 556.4696 593.0617 L 538.6981 546.88563 L 516.4837 546.2443 L 491.49244 492.37224 L 528.14624 457.7402 C 528.14624 457.7402 528.14624 425.6735 528.7016 425.6735 C 529.25696 425.6735 623.66826 414.1295 623.66826 414.1295 L 631.4433 397.4548 L 726.9653 410.9228 C 726.9653 410.9228 782.5014 398.73747 783.6121 398.73747 C 784.7228 398.73747 818.5998 424.39083 826.9302 427.5975 Z M 846.6511 501.8175 L 846.6511 501.8175 C 878.5772 488.21575 854.0892 443.7367 811.9979 444.94787 C 817.623 426.19164 765.7379 397.4548 723.46825 425.28403 C 718.2073 404.4121 636.57336 399.87406 625.1412 433.7561 C 612.8062 409.5542 519.19764 422.5612 541.8725 465.8198 C 505.2279 459.7701 488.17436 532.9767 548.95026 535.0955 C 532.8033 561.4131 592.3085 585.3114 616.072 569.278 C 612.98824 591.66156 700.2472 611.3254 717.1187 575.3277 C 723.83235 597.71125 810.9093 582.889 797.6677 552.64054 C 823.4301 564.1359 877.1282 527.53104 846.6511 501.8175 Z M 785.1507 634.6197 L 785.1507 634.6197 C 804.19935 634.3161 794.766 614.0482 783.1555 617.6787 C 783.5159 603.1569 764.6493 603.4605 757.5753 611.92944 C 753.767 596.1996 722.5617 605.2757 727.82265 614.9558 C 706.9609 605.2757 701.3358 630.0816 716.57625 630.98924 C 708.774 642.7851 720.7486 651.5576 734.9004 644.2998 C 739.7973 656.0956 766.102 654.88446 767.5547 644.2998 C 786.7817 654.88446 791.1361 641.87746 785.1507 634.6197 Z M 839.2129 678.4823 L 839.2129 678.4823 C 846.287 681.2051 854.6317 671.8255 843.2032 668.195 C 848.6462 662.1453 834.1303 652.4652 827.2383 661.2377 C 821.9774 653.3728 805.1059 658.5149 811.9979 667.591 C 804.9238 673.6407 809.6424 682.11275 820.7067 679.3899 C 822.5198 688.7665 842.2967 684.532 839.2129 678.4823 Z" fill="#ccc"/>
        <path d="M 826.9302 427.5975 L 826.9302 427.5975 C 835.2606 430.80417 873.5805 468.00155 873.5805 468.00155 L 874.1359 469.92555 L 864.6947 536.6243 C 864.6947 536.6243 805.2712 583.4417 799.1622 584.72434 C 793.0532 586.007 807.4926 637.3137 807.4926 637.3137 L 854.1429 642.4444 C 854.1429 642.4444 864.6947 677.7178 864.1394 677.07645 C 863.584 676.4351 838.5928 700.1645 838.5928 700.1645 L 799.1622 683.4898 L 786.3889 661.0431 L 715.8581 661.0431 L 704.7509 638.5964 L 677.5382 615.5084 L 607.5628 587.931 L 556.4696 593.0617 L 538.6981 546.88563 L 516.4837 546.2443 L 491.49244 492.37224 L 528.14624 457.7402 C 528.14624 457.7402 528.14624 425.6735 528.7016 425.6735 C 529.25696 425.6735 623.66826 414.1295 623.66826 414.1295 L 631.4433 397.4548 L 726.9653 410.9228 C 726.9653 410.9228 782.5014 398.73747 783.6121 398.73747 C 784.7228 398.73747 818.5998 424.39083 826.9302 427.5975 Z M 846.6511 501.8175 L 846.6511 501.8175 C 878.5772 488.21575 854.0892 443.7367 811.9979 444.94787 C 817.623 426.19164 765.7379 397.4548 723.46825 425.28403 C 718.2073 404.4121 636.57336 399.87406 625.1412 433.7561 C 612.8062 409.5542 519.19764 422.5612 541.8725 465.8198 C 505.2279 459.7701 488.17436 532.9767 548.95026 535.0955 C 532.8033 561.4131 592.3085 585.3114 616.072 569.278 C 612.98824 591.66156 700.2472 611.3254 717.1187 575.3277 C 723.83235 597.71125 810.9093 582.889 797.6677 552.64054 C 823.4301 564.1359 877.1282 527.53104 846.6511 501.8175 Z M 785.1507 634.6197 L 785.1507 634.6197 C 804.19935 634.3161 794.766 614.0482 783.1555 617.6787 C 783.5159 603.1569 764.6493 603.4605 757.5753 611.92944 C 753.767 596.1996 722.5617 605.2757 727.82265 614.9558 C 706.9609 605.2757 701.3358 630.0816 716.57625 630.98924 C 708.774 642.7851 720.7486 651.5576 734.9004 644.2998 C 739.7973 656.0956 766.102 654.88446 767.5547 644.2998 C 786.7817 654.88446 791.1361 641.87746 785.1507 634.6197 Z M 839.2129 678.4823 L 839.2129 678.4823 C 846.287 681.2051 854.6317 671.8255 843.2032 668.195 C 848.6462 662.1453 834.1303 652.4652 827.2383 661.2377 C 821.9774 653.3728 805.1059 658.5149 811.9979 667.591 C 804.9238 673.6407 809.6424 682.11275 820.7067 679.3899 C 822.5198 688.7665 842.2967 684.532 839.2129 678.4823 Z" stroke="#a5a5a5" stroke-linecap="round" stroke-linejoin="round" stroke-width=".25"/>
      </g>
    </g>
  </g>
</svg>
