<?xml version="1.0" encoding="UTF-8" standalone="no"?>
<!DOCTYPE svg PUBLIC "-//W3C//DTD SVG 1.1//EN" "http://www.w3.org/Graphics/SVG/1.1/DTD/svg11.dtd">
<svg version="1.1" xmlns:dc="http://purl.org/dc/elements/1.1/" xmlns:xl="http://www.w3.org/1999/xlink" xmlns="http://www.w3.org/2000/svg" viewBox="1470.9651 1032.4455 438.145 307.11835" width="438.145" height="307.11835">
  <defs/>
  <g id="Canvas_1" stroke-opacity="1" fill-opacity="1" fill="none" stroke-dasharray="none" stroke="none">
    <title>Canvas 1</title>
    <g id="Canvas_1_Layer_1">
      <title>Layer 1</title>
      <g id="Group_48">
        <g id="Graphic_42">
          <path d="M 1743.5433 1034.2751 C 1690.299 1026.9376 1600.3162 1052.3366 1600.3162 1052.9011 C 1600.3162 1053.4655 1490.1006 1091.8463 1490.1006 1092.4107 C 1490.1006 1092.9751 1471.4651 1183.283 1471.4651 1184.4118 C 1471.4651 1185.5406 1528.4365 1257.7869 1528.4365 1257.7869 C 1528.4365 1257.7869 1678.5853 1288.8302 1680.1826 1289.3946 C 1681.78 1289.959 1745.1406 1339.0639 1745.673 1339.0639 C 1746.2055 1339.0639 1798.9173 1332.2908 1798.9173 1332.2908 L 1757.9193 1283.7504 C 1757.9193 1283.7504 1881.9784 1235.2099 1884.6406 1235.2099 C 1887.3028 1235.2099 1909.133 1150.5464 1908.6005 1148.2887 C 1908.068 1146.031 1858.0185 1070.3982 1858.0185 1070.3982 C 1858.0185 1070.3982 1797.32 1045.5636 1796.2551 1045.5636 C 1795.1902 1045.5636 1795.1902 1043.8703 1795.1902 1043.8703 C 1795.1902 1043.8703 1796.7876 1041.6126 1743.5433 1034.2751 Z" fill="white"/>
          <path d="M 1743.5433 1034.2751 C 1690.299 1026.9376 1600.3162 1052.3366 1600.3162 1052.9011 C 1600.3162 1053.4655 1490.1006 1091.8463 1490.1006 1092.4107 C 1490.1006 1092.9751 1471.4651 1183.283 1471.4651 1184.4118 C 1471.4651 1185.5406 1528.4365 1257.7869 1528.4365 1257.7869 C 1528.4365 1257.7869 1678.5853 1288.8302 1680.1826 1289.3946 C 1681.78 1289.959 1745.1406 1339.0639 1745.673 1339.0639 C 1746.2055 1339.0639 1798.9173 1332.2908 1798.9173 1332.2908 L 1757.9193 1283.7504 C 1757.9193 1283.7504 1881.9784 1235.2099 1884.6406 1235.2099 C 1887.3028 1235.2099 1909.133 1150.5464 1908.6005 1148.2887 C 1908.068 1146.031 1858.0185 1070.3982 1858.0185 1070.3982 C 1858.0185 1070.3982 1797.32 1045.5636 1796.2551 1045.5636 C 1795.1902 1045.5636 1795.1902 1043.8703 1795.1902 1043.8703 C 1795.1902 1043.8703 1796.7876 1041.6126 1743.5433 1034.2751 Z" stroke="#a5a5a5" stroke-linecap="round" stroke-linejoin="round" stroke-width="1"/>
        </g>
        <g id="Graphic_43">
          <path d="M 1496.5368 1159.7255 C 1496.5368 1096.7648 1586.8665 1045.8491 1698.4992 1045.8491 C 1810.132 1045.8491 1900.4617 1096.7648 1900.4617 1159.7255 C 1900.4617 1213.3799 1834.1938 1258.5464 1745.2414 1270.3167 C 1752.5403 1290.5748 1764.5692 1314.39 1783.5052 1326.1603 C 1747.0187 1326.1603 1710.924 1298.2385 1686.2724 1273.3272 C 1580.3593 1269.7701 1496.5368 1220.2223 1496.5368 1159.7255 Z" fill="#ffc0c0"/>
        </g>
      </g>
    </g>
  </g>
</svg>
