<?xml version="1.0" encoding="UTF-8" standalone="no"?>
<!DOCTYPE svg PUBLIC "-//W3C//DTD SVG 1.1//EN" "http://www.w3.org/Graphics/SVG/1.1/DTD/svg11.dtd">
<svg version="1.1" xmlns:dc="http://purl.org/dc/elements/1.1/" xmlns:xl="http://www.w3.org/1999/xlink" xmlns="http://www.w3.org/2000/svg" viewBox="1983.4134 1387.6448 342.58663 392.35517" width="342.58663" height="392.35517">
  <defs/>
  <g id="Canvas_1" stroke-opacity="1" fill-opacity="1" fill="none" stroke-dasharray="none" stroke="none">
    <title>Canvas 1</title>
    <g id="Canvas_1_Layer_1">
      <title>Layer 1</title>
      <g id="Graphic_78">
        <path d="M 2237.1139 1401.6472 L 2237.1139 1401.6472 C 2237.1139 1401.6472 2237.1139 1403.8175 2237.9484 1403.8175 C 2238.783 1403.8175 2286.3518 1435.6483 2286.3518 1435.6483 C 2286.3518 1435.6483 2325.5752 1532.5877 2325.9925 1535.4814 C 2326.4098 1538.375 2309.3017 1646.8893 2307.2153 1646.8893 C 2305.129 1646.8893 2207.905 1709.104 2207.905 1709.104 L 2240.0348 1771.3189 C 2240.0348 1771.3189 2198.725 1780 2198.3077 1780 C 2197.8904 1780 2148.2352 1717.0618 2146.9834 1716.3383 C 2145.7316 1715.615 2028.0613 1675.8264 2028.0613 1675.8264 C 2028.0613 1675.8264 1983.4134 1583.2276 1983.4134 1581.7808 C 1983.4134 1580.3339 1998.0178 1464.5854 1998.0178 1463.862 C 1998.0178 1463.1386 2084.3928 1413.9455 2084.3928 1413.222 C 2084.3928 1412.4986 2154.9116 1379.9444 2196.6386 1389.349 C 2238.3657 1398.7535 2237.1139 1401.6472 2237.1139 1401.6472 Z M 1996.4305 1550.1401 L 1996.4305 1550.1401 C 1996.4305 1627.6795 2062.1215 1691.1854 2145.1246 1695.7446 C 2164.4438 1727.6737 2192.731 1763.4613 2221.325 1763.4613 C 2206.4852 1748.3752 2197.0582 1717.851 2191.338 1691.886 C 2261.0493 1676.8 2312.9829 1618.9095 2312.9829 1550.1401 C 2312.9829 1469.4427 2242.1923 1404.1835 2154.7067 1404.1835 C 2067.221 1404.1835 1996.4305 1469.4427 1996.4305 1550.1401 Z" fill="#ccc"/>
      </g>
    </g>
  </g>
</svg>
