<?xml version="1.0" encoding="UTF-8" standalone="no"?>
<!DOCTYPE svg PUBLIC "-//W3C//DTD SVG 1.1//EN" "http://www.w3.org/Graphics/SVG/1.1/DTD/svg11.dtd">
<svg xmlns:xl="http://www.w3.org/1999/xlink" xmlns:dc="http://purl.org/dc/elements/1.1/" version="1.1" xmlns="http://www.w3.org/2000/svg" viewBox="972.5613 1182.4514 437.145 306.11835" width="437.145" height="306.11835">
  <defs/>
  <g id="Canvas_1" stroke="none" fill-opacity="1" stroke-dasharray="none" stroke-opacity="1" fill="none">
    <title>Canvas 1</title>
    <g id="Canvas_1_Layer_1">
      <title>Layer 1</title>
      <g id="Graphic_39">
        <path d="M 1296.2865 1193.3762 L 1296.2865 1193.3762 C 1296.2865 1193.3762 1296.2865 1195.0695 1297.3513 1195.0695 C 1298.4162 1195.0695 1359.1147 1219.9041 1359.1147 1219.9041 C 1359.1147 1219.9041 1409.1643 1295.5369 1409.6968 1297.7946 C 1410.2292 1300.0523 1388.399 1384.7158 1385.7368 1384.7158 C 1383.0746 1384.7158 1259.0155 1433.2562 1259.0155 1433.2562 L 1300.0136 1481.7967 C 1300.0136 1481.7967 1247.3017 1488.5698 1246.7693 1488.5698 C 1246.2368 1488.5698 1182.8762 1439.4649 1181.2788 1438.9005 C 1179.6815 1438.336 1029.5327 1407.2928 1029.5327 1407.2928 C 1029.5327 1407.2928 972.5613 1335.0465 972.5613 1333.9177 C 972.5613 1332.7888 991.1968 1242.481 991.1968 1241.9166 C 991.1968 1241.3522 1101.4124 1202.9714 1101.4124 1202.407 C 1101.4124 1201.8425 1191.3953 1176.4435 1244.6395 1183.781 C 1297.8838 1191.1185 1296.2865 1193.3762 1296.2865 1193.3762 Z M 989.1714 1309.2314 L 989.1714 1309.2314 C 989.1714 1369.7282 1072.9939 1419.276 1178.907 1422.8331 C 1203.5586 1447.7444 1239.6533 1475.6662 1276.1398 1475.6662 C 1257.2038 1463.8959 1245.175 1440.0807 1237.876 1419.8226 C 1326.8284 1408.0523 1393.0963 1362.8858 1393.0963 1309.2314 C 1393.0963 1246.2707 1302.7666 1195.355 1191.1338 1195.355 C 1079.5011 1195.355 989.1714 1246.2707 989.1714 1309.2314 Z" fill="#c0ffc0"/>
      </g>
    </g>
  </g>
</svg>
