<?xml version="1.0" encoding="UTF-8" standalone="no"?>
<!DOCTYPE svg PUBLIC "-//W3C//DTD SVG 1.1//EN" "http://www.w3.org/Graphics/SVG/1.1/DTD/svg11.dtd">
<svg version="1.1" xmlns:dc="http://purl.org/dc/elements/1.1/" xmlns:xl="http://www.w3.org/1999/xlink" xmlns="http://www.w3.org/2000/svg" viewBox="477.0467 1029.1745 382.8934 302.95967" width="382.8934" height="302.95967">
  <defs/>
  <g id="Canvas_1" stroke-opacity="1" fill-opacity="1" fill="none" stroke-dasharray="none" stroke="none">
    <title>Canvas 1</title>
    <g id="Canvas_1_Layer_1">
      <title>Layer 1</title>
      <g id="Graphic_22">
        <path d="M 812.6095 1059.4422 L 812.6095 1059.4422 C 820.9399 1062.6489 859.2598 1099.8463 859.2598 1099.8463 L 859.8151 1101.7703 L 850.374 1168.469 C 850.374 1168.469 790.9504 1215.2864 784.84145 1216.569 C 778.7325 1217.8517 793.1719 1269.1585 793.1719 1269.1585 L 839.8221 1274.2891 C 839.8221 1274.2891 850.374 1309.5625 849.8186 1308.9212 C 849.2633 1308.2798 824.27205 1332.0092 824.27205 1332.0092 L 784.84145 1315.3345 L 772.0682 1292.8878 L 701.5374 1292.8878 L 690.43016 1270.4411 L 663.2175 1247.3531 L 593.24206 1219.7757 L 542.1489 1224.9064 L 524.37735 1178.7304 L 502.1629 1178.089 L 477.1717 1124.217 L 513.8255 1089.5849 C 513.8255 1089.5849 513.8255 1057.5182 514.38086 1057.5182 C 514.9362 1057.5182 609.3475 1045.9742 609.3475 1045.9742 L 617.1226 1029.2995 L 712.6446 1042.7675 C 712.6446 1042.7675 768.1806 1030.5822 769.2914 1030.5822 C 770.4021 1030.5822 804.2791 1056.2356 812.6095 1059.4422 Z M 832.3303 1133.6622 L 832.3303 1133.6622 C 864.2564 1120.0605 839.7685 1075.5814 797.6772 1076.7926 C 803.3022 1058.0364 751.4172 1029.2995 709.1475 1057.1288 C 703.88655 1036.2568 622.2526 1031.7188 610.82045 1065.6008 C 598.48545 1041.3989 504.8769 1054.4059 527.55175 1097.6645 C 490.90714 1091.6148 473.8536 1164.8214 534.6295 1166.9402 C 518.48255 1193.2578 577.9878 1217.1561 601.75125 1201.1227 C 598.6675 1223.5063 685.9265 1243.1701 702.79795 1207.1724 C 709.5116 1229.556 796.58855 1214.7338 783.347 1184.4853 C 809.1093 1195.9806 862.8075 1159.3758 832.3303 1133.6622 Z M 770.82995 1266.4644 L 770.82995 1266.4644 C 789.8786 1266.1608 780.4453 1245.893 768.8348 1249.5234 C 769.1952 1235.0016 750.3286 1235.3052 743.2545 1243.7742 C 739.4463 1228.0443 708.24096 1237.1204 713.5019 1246.8006 C 692.64015 1237.1204 687.0151 1261.9264 702.2555 1262.834 C 694.45325 1274.6298 706.4279 1283.4023 720.5797 1276.1445 C 725.4765 1287.9404 751.7813 1286.7292 753.234 1276.1445 C 772.461 1286.7292 776.8154 1273.7222 770.82995 1266.4644 Z M 824.8922 1310.327 L 824.8922 1310.327 C 831.9662 1313.0499 840.3109 1303.6702 828.8825 1300.0398 C 834.3255 1293.99 819.8096 1284.31 812.9176 1293.0825 C 807.6566 1285.2175 790.7852 1290.3596 797.6772 1299.4357 C 790.6031 1305.4854 795.3216 1313.9575 806.386 1311.2346 C 808.1991 1320.6112 827.9759 1316.3767 824.8922 1310.327 Z" fill="#ccc"/>
        <path d="M 812.6095 1059.4422 L 812.6095 1059.4422 C 820.9399 1062.6489 859.2598 1099.8463 859.2598 1099.8463 L 859.8151 1101.7703 L 850.374 1168.469 C 850.374 1168.469 790.9504 1215.2864 784.84145 1216.569 C 778.7325 1217.8517 793.1719 1269.1585 793.1719 1269.1585 L 839.8221 1274.2891 C 839.8221 1274.2891 850.374 1309.5625 849.8186 1308.9212 C 849.2633 1308.2798 824.27205 1332.0092 824.27205 1332.0092 L 784.84145 1315.3345 L 772.0682 1292.8878 L 701.5374 1292.8878 L 690.43016 1270.4411 L 663.2175 1247.3531 L 593.24206 1219.7757 L 542.1489 1224.9064 L 524.37735 1178.7304 L 502.1629 1178.089 L 477.1717 1124.217 L 513.8255 1089.5849 C 513.8255 1089.5849 513.8255 1057.5182 514.38086 1057.5182 C 514.9362 1057.5182 609.3475 1045.9742 609.3475 1045.9742 L 617.1226 1029.2995 L 712.6446 1042.7675 C 712.6446 1042.7675 768.1806 1030.5822 769.2914 1030.5822 C 770.4021 1030.5822 804.2791 1056.2356 812.6095 1059.4422 Z M 832.3303 1133.6622 L 832.3303 1133.6622 C 864.2564 1120.0605 839.7685 1075.5814 797.6772 1076.7926 C 803.3022 1058.0364 751.4172 1029.2995 709.1475 1057.1288 C 703.88655 1036.2568 622.2526 1031.7188 610.82045 1065.6008 C 598.48545 1041.3989 504.8769 1054.4059 527.55175 1097.6645 C 490.90714 1091.6148 473.8536 1164.8214 534.6295 1166.9402 C 518.48255 1193.2578 577.9878 1217.1561 601.75125 1201.1227 C 598.6675 1223.5063 685.9265 1243.1701 702.79795 1207.1724 C 709.5116 1229.556 796.58855 1214.7338 783.347 1184.4853 C 809.1093 1195.9806 862.8075 1159.3758 832.3303 1133.6622 Z M 770.82995 1266.4644 L 770.82995 1266.4644 C 789.8786 1266.1608 780.4453 1245.893 768.8348 1249.5234 C 769.1952 1235.0016 750.3286 1235.3052 743.2545 1243.7742 C 739.4463 1228.0443 708.24096 1237.1204 713.5019 1246.8006 C 692.64015 1237.1204 687.0151 1261.9264 702.2555 1262.834 C 694.45325 1274.6298 706.4279 1283.4023 720.5797 1276.1445 C 725.4765 1287.9404 751.7813 1286.7292 753.234 1276.1445 C 772.461 1286.7292 776.8154 1273.7222 770.82995 1266.4644 Z M 824.8922 1310.327 L 824.8922 1310.327 C 831.9662 1313.0499 840.3109 1303.6702 828.8825 1300.0398 C 834.3255 1293.99 819.8096 1284.31 812.9176 1293.0825 C 807.6566 1285.2175 790.7852 1290.3596 797.6772 1299.4357 C 790.6031 1305.4854 795.3216 1313.9575 806.386 1311.2346 C 808.1991 1320.6112 827.9759 1316.3767 824.8922 1310.327 Z" stroke="#a5a5a5" stroke-linecap="round" stroke-linejoin="round" stroke-width=".25"/>
      </g>
    </g>
  </g>
</svg>
