<?xml version="1.0" encoding="UTF-8" standalone="no"?>
<!DOCTYPE svg PUBLIC "-//W3C//DTD SVG 1.1//EN" "http://www.w3.org/Graphics/SVG/1.1/DTD/svg11.dtd">
<svg version="1.1" xmlns:dc="http://purl.org/dc/elements/1.1/" xmlns:xl="http://www.w3.org/1999/xlink" xmlns="http://www.w3.org/2000/svg" viewBox="1470.9651 1337.5 430.57665 378.54743" width="430.57665" height="378.54743">
  <defs/>
  <g id="Canvas_1" stroke-opacity="1" fill-opacity="1" fill="none" stroke-dasharray="none" stroke="none">
    <title>Canvas 1</title>
    <g id="Canvas_1_Layer_1">
      <title>Layer 1</title>
      <g id="Group_75">
        <g id="Graphic_77">
          <path d="M 1487.038 1498.6427 C 1487.038 1420.9908 1575.8039 1358.1946 1685.504 1358.1946 C 1795.204 1358.1946 1883.9698 1420.9908 1883.9698 1498.6427 C 1883.9698 1564.8166 1818.8492 1620.5222 1731.4369 1635.039 C 1738.6094 1660.024 1750.43 1689.3963 1769.0382 1703.913 C 1733.1834 1703.913 1697.7135 1669.476 1673.4888 1638.752 C 1569.4093 1634.3648 1487.038 1573.2556 1487.038 1498.6427 Z" fill="#c0ffc0"/>
        </g>
        <g id="Graphic_76">
          <path d="M 1738.8328 1339.6398 C 1686.5103 1330.5902 1598.0854 1361.9158 1598.0854 1362.612 C 1598.0854 1363.308 1489.778 1410.6446 1489.778 1411.3407 C 1489.778 1412.0368 1471.4651 1523.4169 1471.4651 1524.8091 C 1471.4651 1526.2014 1527.4501 1615.3054 1527.4501 1615.3054 C 1527.4501 1615.3054 1674.9994 1653.5923 1676.569 1654.2884 C 1678.1387 1654.9845 1740.4024 1715.5474 1740.9257 1715.5474 C 1741.4489 1715.5474 1793.2481 1707.194 1793.2481 1707.194 L 1752.9598 1647.3272 C 1752.9598 1647.3272 1874.8711 1587.4604 1877.4872 1587.4604 C 1880.1034 1587.4604 1901.5556 1483.0416 1901.0323 1480.2571 C 1900.509 1477.4726 1851.326 1384.1918 1851.326 1384.1918 C 1851.326 1384.1918 1791.6784 1353.5623 1790.632 1353.5623 C 1789.5855 1353.5623 1789.5855 1351.474 1789.5855 1351.474 C 1789.5855 1351.474 1791.1552 1348.6894 1738.8328 1339.6398 Z" stroke="black" stroke-linecap="round" stroke-linejoin="round" stroke-width="1"/>
        </g>
      </g>
    </g>
  </g>
</svg>
