<?xml version="1.0" encoding="UTF-8" standalone="no"?>
<!DOCTYPE svg PUBLIC "-//W3C//DTD SVG 1.1//EN" "http://www.w3.org/Graphics/SVG/1.1/DTD/svg11.dtd">
<svg version="1.1" xmlns:dc="http://purl.org/dc/elements/1.1/" xmlns:xl="http://www.w3.org/1999/xlink" xmlns="http://www.w3.org/2000/svg" viewBox="2426.2453 1032.9455 437.145 306.11835" width="437.145" height="306.11835">
  <defs/>
  <g id="Canvas_1" stroke-opacity="1" fill-opacity="1" fill="none" stroke-dasharray="none" stroke="none">
    <title>Canvas 1</title>
    <g id="Canvas_1_Layer_1">
      <title>Layer 1</title>
      <g id="Graphic_39">
        <path d="M 2749.9705 1043.8703 L 2749.9705 1043.8703 C 2749.9705 1043.8703 2749.9705 1045.5636 2751.0353 1045.5636 C 2752.1002 1045.5636 2812.7987 1070.3982 2812.7987 1070.3982 C 2812.7987 1070.3982 2862.8483 1146.031 2863.3807 1148.2887 C 2863.9132 1150.5464 2842.083 1235.2099 2839.4208 1235.2099 C 2836.7586 1235.2099 2712.6995 1283.7504 2712.6995 1283.7504 L 2753.6976 1332.2908 C 2753.6976 1332.2908 2700.9857 1339.0639 2700.4533 1339.0639 C 2699.921 1339.0639 2636.5602 1289.959 2634.9628 1289.3946 C 2633.3655 1288.8302 2483.2167 1257.7869 2483.2167 1257.7869 C 2483.2167 1257.7869 2426.2453 1185.5406 2426.2453 1184.4118 C 2426.2453 1183.283 2444.8808 1092.9751 2444.8808 1092.4107 C 2444.8808 1091.8463 2555.0964 1053.4655 2555.0964 1052.9011 C 2555.0964 1052.3366 2645.0793 1026.9376 2698.3235 1034.2751 C 2751.5678 1041.6126 2749.9705 1043.8703 2749.9705 1043.8703 Z M 2442.8554 1159.7255 L 2442.8554 1159.7255 C 2442.8554 1220.2223 2526.678 1269.7701 2632.591 1273.3272 C 2657.2426 1298.2385 2693.3373 1326.1603 2729.8238 1326.1603 C 2710.8878 1314.39 2698.859 1290.5748 2691.56 1270.3167 C 2780.5124 1258.5464 2846.7803 1213.3799 2846.7803 1159.7255 C 2846.7803 1096.7648 2756.4506 1045.8491 2644.8178 1045.8491 C 2533.185 1045.8491 2442.8554 1096.7648 2442.8554 1159.7255 Z" fill="#c0ffc0"/>
      </g>
    </g>
  </g>
</svg>
