<?xml version="1.0" encoding="UTF-8" standalone="no"?>
<!DOCTYPE svg PUBLIC "-//W3C//DTD SVG 1.1//EN" "http://www.w3.org/Graphics/SVG/1.1/DTD/svg11.dtd">
<svg version="1.1" xmlns:dc="http://purl.org/dc/elements/1.1/" xmlns:xl="http://www.w3.org/1999/xlink" xmlns="http://www.w3.org/2000/svg" viewBox="47.70111 72.34202 402.67017 254.66102" width="402.67017" height="254.66102">
  <defs>
    <filter id="Shadow" filterUnits="userSpaceOnUse" x="7.434094" y="46.87592">
      <feGaussianBlur in="SourceAlpha" result="blur" stdDeviation="2.616"/>
      <feOffset in="blur" result="offset" dx="0" dy="2"/>
      <feFlood flood-color="black" flood-opacity=".5" result="flood"/>
      <feComposite in="flood" in2="offset" operator="in" result="color"/>
      <feMerge>
        <feMergeNode in="color"/>
        <feMergeNode in="SourceGraphic"/>
      </feMerge>
    </filter>
  </defs>
  <g id="Canvas_1" stroke-opacity="1" fill-opacity="1" fill="none" stroke-dasharray="none" stroke="none">
    <title>Canvas 1</title>
    <g id="Canvas_1_Layer_1">
      <title>Layer 1</title>
      <g id="Group_10">
        <g id="Graphic_5" filter="url(#Shadow)">
          <path d="M 101.91224 100.5053 C 110.41702 97.93474 145.00312 77.37025 146.13709 77.37025 C 147.27106 77.37025 203.96957 87.13838 203.96957 87.13838 L 301.49102 76.34202 L 309.4288 89.70894 C 309.4288 89.70894 405.8163 98.96296 406.38327 98.96296 C 406.95026 98.96296 406.95026 124.66858 406.95026 124.66858 L 444.3713 152.43065 L 418.85694 195.61608 L 396.17754 196.1302 L 378.034 233.14628 L 325.87138 229.03338 L 254.43125 251.1402 L 226.64898 269.64826 L 215.30927 287.6422 L 143.30216 287.6422 L 130.2615 305.63612 L 90.00556 319.00304 C 90.00556 319.00304 64.49122 299.9809 63.92424 300.495 C 63.35725 301.0091 74.12997 272.73293 74.12997 272.73293 L 121.75672 268.62003 C 121.75672 268.62003 136.49834 227.49105 130.2615 226.46282 C 124.02466 225.4346 63.35725 187.9044 63.35725 187.9044 L 53.718506 134.43671 L 54.28549 132.89438 C 54.28549 132.89438 93.40747 103.07586 101.91224 100.5053 Z" fill="white"/>
        </g>
        <g id="Graphic_2">
          <path d="M 81.7786 160.00225 C 49.184225 149.09868 74.18475 113.44295 117.15713 114.41387 C 111.41433 99.37832 164.3854 76.34202 207.53984 98.65075 C 212.91092 81.91921 296.2536 78.28137 307.92505 105.4422 C 320.51824 86.04125 416.08617 96.46805 392.9367 131.14542 C 430.34834 126.2958 447.7588 184.98038 385.7108 186.67887 C 402.19572 207.77582 341.44494 226.93341 317.18408 214.08056 C 320.33238 232.0239 231.2469 247.787 214.0223 218.93018 C 207.16812 236.8735 118.26851 224.99158 131.78723 200.7435 C 105.48566 209.95852 50.663546 180.61498 81.7786 160.00225 Z M 144.56629 266.4604 C 138.45556 272.27845 142.9011 282.70524 162.53056 274.22028 C 164.01367 282.70524 190.86904 283.67616 195.86838 274.22028 C 210.31642 280.03833 222.54168 273.006 214.5761 263.55013 C 230.13552 262.82256 224.39272 242.9374 203.0943 250.69728 C 208.46537 242.9374 176.60686 235.66173 172.7189 248.27123 C 165.49678 241.48226 146.23527 241.2389 146.6032 252.87998 C 134.74967 249.9697 125.11891 266.21705 144.56629 266.4604 Z M 89.37244 301.62198 C 86.22415 306.4716 106.41498 309.86608 108.26603 302.34954 C 119.56197 304.53224 124.37925 297.7408 117.15713 292.89118 C 124.19338 285.6155 106.96878 281.49346 101.5977 287.7982 C 94.56145 280.7659 79.74169 288.52578 85.29862 293.3754 C 73.63095 296.28566 82.15032 303.80468 89.37244 301.62198 Z" fill="#ccc"/>
        </g>
      </g>
    </g>
  </g>
</svg>
