<?xml version="1.0" encoding="UTF-8" standalone="no"?>
<!DOCTYPE svg PUBLIC "-//W3C//DTD SVG 1.1//EN" "http://www.w3.org/Graphics/SVG/1.1/DTD/svg11.dtd">
<svg xmlns:xl="http://www.w3.org/1999/xlink" xmlns:dc="http://purl.org/dc/elements/1.1/" version="1.1" xmlns="http://www.w3.org/2000/svg" viewBox="937.3566 400.50947 394.6434 314.70967" width="394.6434" height="314.70967">
  <defs>
    <filter id="Shadow" filterUnits="userSpaceOnUse" x="897.8922" y="369.0385">
      <feGaussianBlur in="SourceAlpha" result="blur" stdDeviation="2.616"/>
      <feOffset in="blur" result="offset" dx="0" dy="2"/>
      <feFlood flood-color="black" flood-opacity=".5" result="flood"/>
      <feComposite in="flood" in2="offset" operator="in" result="color"/>
      <feMerge>
        <feMergeNode in="color"/>
        <feMergeNode in="SourceGraphic"/>
      </feMerge>
    </filter>
  </defs>
  <g id="Canvas_1" stroke="none" fill-opacity="1" stroke-dasharray="none" stroke-opacity="1" fill="none">
    <title>Canvas 1</title>
    <g id="Canvas_1_Layer_1">
      <title>Layer 1</title>
      <g id="Graphic_23" filter="url(#Shadow)">
        <path d="M 1278.7944 434.6522 L 1278.7944 434.6522 C 1287.1248 437.85884 1325.4446 475.0562 1325.4446 475.0562 L 1326 476.9802 L 1316.5589 543.67896 C 1316.5589 543.67896 1257.1353 590.49635 1251.0263 591.779 C 1244.9174 593.0617 1259.3567 644.3684 1259.3567 644.3684 L 1306.007 649.4991 C 1306.007 649.4991 1316.5589 684.77245 1316.0035 684.1311 C 1315.4481 683.4898 1290.457 707.21915 1290.457 707.21915 L 1251.0263 690.5445 L 1238.253 668.0978 L 1167.7222 668.0978 L 1156.615 645.6511 L 1129.4024 622.56305 L 1059.4269 594.9857 L 1008.3338 600.11636 L 990.5622 553.9403 L 968.3478 553.299 L 943.3566 499.4269 L 980.0104 464.7949 C 980.0104 464.7949 980.0104 432.72817 980.5657 432.72817 C 981.1211 432.72817 1075.5324 421.18416 1075.5324 421.18416 L 1083.3074 404.50947 L 1178.8295 417.9775 C 1178.8295 417.9775 1234.3655 405.79214 1235.4762 405.79214 C 1236.587 405.79214 1270.464 431.4455 1278.7944 434.6522 Z M 1298.5152 508.8722 L 1298.5152 508.8722 C 1330.4413 495.2704 1305.9534 450.79137 1263.862 452.00254 C 1269.4871 433.2463 1217.602 404.50947 1175.3324 432.3387 C 1170.0714 411.4668 1088.4375 406.92873 1077.0053 440.81076 C 1064.6703 416.60887 971.0618 429.6159 993.7366 472.87447 C 957.092 466.82477 940.0385 540.0314 1000.8144 542.15016 C 984.6674 568.46774 1044.1727 592.36606 1067.9361 576.33266 C 1064.8524 598.7162 1152.1114 618.3801 1168.9828 582.38236 C 1175.6965 604.7659 1262.7734 589.9437 1249.5319 559.6952 C 1275.2942 571.1906 1328.9923 534.5857 1298.5152 508.8722 Z M 1237.0148 641.67435 L 1237.0148 641.67435 C 1256.0635 641.3708 1246.6302 621.1029 1235.0197 624.73334 C 1235.38 610.2116 1216.5135 610.51516 1209.4394 618.9841 C 1205.6312 603.2543 1174.4258 612.3304 1179.6868 622.0105 C 1158.825 612.3304 1153.2 637.1363 1168.4404 638.0439 C 1160.6381 649.83974 1172.6127 658.6123 1186.7645 651.3545 C 1191.6614 663.1503 1217.9662 661.9391 1219.4189 651.3545 C 1238.6459 661.9391 1243.0003 648.9321 1237.0148 641.67435 Z M 1291.077 685.537 L 1291.077 685.537 C 1298.1511 688.2598 1306.4958 678.88015 1295.0674 675.2497 C 1300.5104 669.2 1285.9944 659.5199 1279.1024 668.2924 C 1273.8415 660.4275 1256.97 665.5696 1263.862 674.6457 C 1256.788 680.6954 1261.5065 689.1674 1272.5708 686.4446 C 1274.384 695.8212 1294.1608 691.5867 1291.077 685.537 Z" fill="#4040ff"/>
      </g>
    </g>
  </g>
</svg>
