<?xml version="1.0" encoding="UTF-8" standalone="no"?>
<!DOCTYPE svg PUBLIC "-//W3C//DTD SVG 1.1//EN" "http://www.w3.org/Graphics/SVG/1.1/DTD/svg11.dtd">
<svg xmlns:xl="http://www.w3.org/1999/xlink" xmlns:dc="http://purl.org/dc/elements/1.1/" version="1.1" xmlns="http://www.w3.org/2000/svg" viewBox="28.884747 354.04134 394.6434 314.70967" width="394.6434" height="314.70967">
  <defs>
    <filter id="Shadow" filterUnits="userSpaceOnUse" x="-10.579595" y="322.57037">
      <feGaussianBlur in="SourceAlpha" result="blur" stdDeviation="2.616"/>
      <feOffset in="blur" result="offset" dx="0" dy="2"/>
      <feFlood flood-color="black" flood-opacity=".5" result="flood"/>
      <feComposite in="flood" in2="offset" operator="in" result="color"/>
      <feMerge>
        <feMergeNode in="color"/>
        <feMergeNode in="SourceGraphic"/>
      </feMerge>
    </filter>
  </defs>
  <g id="Canvas_1" stroke="none" fill-opacity="1" stroke-dasharray="none" stroke-opacity="1" fill="none">
    <title>Canvas 1</title>
    <g id="Canvas_1_Layer_1">
      <title>Layer 1</title>
      <g id="Group_47">
        <g id="Graphic_46" filter="url(#Shadow)">
          <path d="M 370.3225 388.18404 C 361.9921 384.97737 328.1151 359.324 327.0044 359.324 C 325.89368 359.324 270.35762 371.50935 270.35762 371.50935 L 174.8356 358.04134 L 167.06056 374.71602 C 167.06056 374.71602 72.649265 386.26004 72.0939 386.26004 C 71.53854 386.26004 71.53854 418.32674 71.53854 418.32674 L 34.884747 452.9588 L 59.87597 506.83084 L 82.09039 507.4722 L 99.86193 553.6482 L 150.9551 548.51755 L 220.93053 576.0949 L 248.1432 599.18294 L 259.2504 621.6296 L 329.7812 621.6296 L 342.5545 644.0763 L 381.9851 660.751 C 381.9851 660.751 406.9763 637.02165 407.5317 637.663 C 408.08704 638.3043 397.5352 603.03095 397.5352 603.03095 L 350.8849 597.9003 C 350.8849 597.9003 336.44553 546.59355 342.5545 545.3109 C 348.66346 544.0282 408.08704 497.2108 408.08704 497.2108 L 417.52817 430.5121 L 416.9728 428.5881 C 416.9728 428.5881 378.65293 391.3907 370.3225 388.18404 Z" fill="white"/>
        </g>
        <g id="Graphic_45">
          <path d="M 388.8929 462.40405 C 420.819 448.8023 396.33107 404.32323 354.23973 405.5344 C 359.8648 386.7782 307.97976 358.04134 265.7101 385.87057 C 260.44913 364.99865 178.8152 360.4606 167.38303 394.3426 C 155.04803 370.14073 61.43948 383.14774 84.11433 426.40633 C 47.46972 420.35663 30.416205 493.56324 91.1921 495.682 C 75.045135 521.9996 134.55037 545.8979 158.31383 529.8645 C 155.23008 552.2481 242.48907 571.91194 259.36053 535.9142 C 266.0742 558.2978 353.15113 543.4756 339.9096 513.2271 C 365.6719 524.72244 419.37003 488.1176 388.8929 462.40405 Z M 327.39253 595.2062 C 333.37798 602.464 329.02357 615.471 309.79657 604.88635 C 308.34387 615.471 282.0391 616.6822 277.14226 604.88635 C 262.99044 612.1441 251.01583 603.3716 258.8181 591.5758 C 243.57767 590.6682 249.20273 565.86224 270.0645 575.5424 C 264.80354 565.86224 296.00886 556.78614 299.8171 572.516 C 306.89116 564.047 325.75777 563.74345 325.39738 578.2652 C 337.0079 574.6348 346.4412 594.90265 327.39253 595.2062 Z M 381.45476 639.06885 C 384.5385 645.11855 364.76164 649.353 362.94854 639.97646 C 351.8842 642.6993 347.1657 634.2272 354.23973 628.1775 C 347.34774 619.10144 364.2192 613.95935 369.48015 621.8243 C 376.37215 613.05174 390.88807 622.7319 385.44506 628.7816 C 396.8735 632.412 388.5288 641.7917 381.45476 639.06885 Z" fill="#c0ffff"/>
        </g>
      </g>
    </g>
  </g>
</svg>
