<?xml version="1.0" encoding="UTF-8" standalone="no"?>
<!DOCTYPE svg PUBLIC "-//W3C//DTD SVG 1.1//EN" "http://www.w3.org/Graphics/SVG/1.1/DTD/svg11.dtd">
<svg xmlns:xl="http://www.w3.org/1999/xlink" xmlns:dc="http://purl.org/dc/elements/1.1/" version="1.1" xmlns="http://www.w3.org/2000/svg" viewBox="17.281097 1181.9514 438.145 307.11835" width="438.145" height="307.11835">
  <defs/>
  <g id="Canvas_1" stroke="none" fill-opacity="1" stroke-dasharray="none" stroke-opacity="1" fill="none">
    <title>Canvas 1</title>
    <g id="Canvas_1_Layer_1">
      <title>Layer 1</title>
      <g id="Group_48">
        <g id="Graphic_42">
          <path d="M 289.8593 1183.781 C 236.61504 1176.4435 146.63223 1201.8425 146.63223 1202.407 C 146.63223 1202.9714 36.41659 1241.3522 36.41659 1241.9166 C 36.41659 1242.481 17.781097 1332.7888 17.781097 1333.9177 C 17.781097 1335.0465 74.75246 1407.2928 74.75246 1407.2928 C 74.75246 1407.2928 224.9013 1438.336 226.49863 1438.9005 C 228.09596 1439.4649 291.45663 1488.5698 291.98908 1488.5698 C 292.52152 1488.5698 345.23335 1481.7967 345.23335 1481.7967 L 304.23526 1433.2562 C 304.23526 1433.2562 428.2944 1384.7158 430.9566 1384.7158 C 433.61883 1384.7158 455.449 1300.0523 454.91654 1297.7946 C 454.3841 1295.5369 404.3345 1219.9041 404.3345 1219.9041 C 404.3345 1219.9041 343.636 1195.0695 342.57113 1195.0695 C 341.50625 1195.0695 341.50625 1193.3762 341.50625 1193.3762 C 341.50625 1193.3762 343.10357 1191.1185 289.8593 1183.781 Z" fill="white"/>
          <path d="M 289.8593 1183.781 C 236.61504 1176.4435 146.63223 1201.8425 146.63223 1202.407 C 146.63223 1202.9714 36.41659 1241.3522 36.41659 1241.9166 C 36.41659 1242.481 17.781097 1332.7888 17.781097 1333.9177 C 17.781097 1335.0465 74.75246 1407.2928 74.75246 1407.2928 C 74.75246 1407.2928 224.9013 1438.336 226.49863 1438.9005 C 228.09596 1439.4649 291.45663 1488.5698 291.98908 1488.5698 C 292.52152 1488.5698 345.23335 1481.7967 345.23335 1481.7967 L 304.23526 1433.2562 C 304.23526 1433.2562 428.2944 1384.7158 430.9566 1384.7158 C 433.61883 1384.7158 455.449 1300.0523 454.91654 1297.7946 C 454.3841 1295.5369 404.3345 1219.9041 404.3345 1219.9041 C 404.3345 1219.9041 343.636 1195.0695 342.57113 1195.0695 C 341.50625 1195.0695 341.50625 1193.3762 341.50625 1193.3762 C 341.50625 1193.3762 343.10357 1191.1185 289.8593 1183.781 Z" stroke="#a5a5a5" stroke-linecap="round" stroke-linejoin="round" stroke-width="1"/>
        </g>
        <g id="Graphic_43">
          <path d="M 42.85276 1309.2314 C 42.85276 1246.2707 133.1825 1195.355 244.81523 1195.355 C 356.44796 1195.355 446.7777 1246.2707 446.7777 1309.2314 C 446.7777 1362.8858 380.50977 1408.0523 291.55742 1419.8226 C 298.85634 1440.0807 310.88523 1463.8959 329.82123 1475.6662 C 293.3347 1475.6662 257.23996 1447.7444 232.58842 1422.8331 C 126.67526 1419.276 42.85276 1369.7282 42.85276 1309.2314 Z" fill="#ffc0c0"/>
        </g>
      </g>
    </g>
  </g>
</svg>
