<?xml version="1.0" encoding="UTF-8" standalone="no"?>
<!DOCTYPE svg PUBLIC "-//W3C//DTD SVG 1.1//EN" "http://www.w3.org/Graphics/SVG/1.1/DTD/svg11.dtd">
<svg version="1.1" xmlns:dc="http://purl.org/dc/elements/1.1/" xmlns:xl="http://www.w3.org/1999/xlink" xmlns="http://www.w3.org/2000/svg" viewBox="962.236 1418.4556 402.65277 285.54437" width="402.65277" height="285.54437">
  <defs>
    <filter id="Shadow" filterUnits="userSpaceOnUse" x="921.9707" y="1389.9012">
      <feGaussianBlur in="SourceAlpha" result="blur" stdDeviation="2.616"/>
      <feOffset in="blur" result="offset" dx="0" dy="2"/>
      <feFlood flood-color="black" flood-opacity=".5" result="flood"/>
      <feComposite in="flood" in2="offset" operator="in" result="color"/>
      <feMerge>
        <feMergeNode in="color"/>
        <feMergeNode in="SourceGraphic"/>
      </feMerge>
    </filter>
  </defs>
  <g id="Canvas_1" stroke-opacity="1" fill-opacity="1" fill="none" stroke-dasharray="none" stroke="none">
    <title>Canvas 1</title>
    <g id="Canvas_1_Layer_1">
      <title>Layer 1</title>
      <g id="Graphic_74" filter="url(#Shadow)">
        <path d="M 1310.695 1449.6942 L 1310.695 1449.6942 C 1319.1998 1452.5919 1358.3218 1486.2054 1358.3218 1486.2054 L 1358.8888 1487.944 L 1349.25 1548.2165 C 1349.25 1548.2165 1288.5826 1590.5231 1282.3458 1591.6822 C 1276.109 1592.8413 1290.8506 1639.2048 1290.8506 1639.2048 L 1338.4773 1643.8411 C 1338.4773 1643.8411 1349.25 1675.716 1348.683 1675.1364 C 1348.116 1674.557 1322.6017 1696 1322.6017 1696 L 1282.3458 1680.9319 L 1269.3051 1660.6479 L 1197.298 1660.6479 L 1185.9583 1640.3639 L 1158.176 1619.5003 L 1086.7359 1594.58 L 1034.5733 1599.2163 L 1016.4298 1557.4892 L 993.7504 1556.9096 L 968.236 1508.228 L 1005.657 1476.9327 C 1005.657 1476.9327 1005.657 1447.9555 1006.224 1447.9555 C 1006.791 1447.9555 1103.1785 1437.5238 1103.1785 1437.5238 L 1111.1163 1422.4556 L 1208.6377 1434.626 C 1208.6377 1434.626 1265.3362 1423.6147 1266.4702 1423.6147 C 1267.6042 1423.6147 1302.1903 1446.7964 1310.695 1449.6942 Z M 1330.8287 1516.7633 L 1330.8287 1516.7633 C 1363.423 1504.472 1338.4226 1464.2784 1295.4502 1465.3729 C 1301.193 1448.4237 1248.2219 1422.4556 1205.0675 1447.6036 C 1199.6964 1428.7426 1116.3537 1424.6418 1104.6823 1455.2594 C 1092.089 1433.3893 996.5211 1445.1431 1019.6706 1484.2338 C 982.259 1478.767 964.8485 1544.9203 1026.8965 1546.835 C 1010.4116 1570.617 1071.1624 1592.2127 1095.4232 1577.724 C 1092.2749 1597.951 1181.3604 1615.7203 1198.585 1583.191 C 1205.4392 1603.4179 1294.3388 1590.0237 1280.82 1562.6896 C 1307.1216 1573.0774 1361.9438 1539.9994 1330.8287 1516.7633 Z M 1268.041 1636.7703 L 1268.041 1636.7703 C 1287.4884 1636.496 1277.8576 1618.1808 1266.0041 1621.4615 C 1266.372 1608.3389 1247.1105 1608.6132 1239.8884 1616.2662 C 1236.0004 1602.0519 1204.142 1610.2535 1209.513 1619.001 C 1188.2146 1610.2535 1182.4718 1632.6695 1198.0312 1633.4896 C 1190.0656 1644.149 1202.2909 1652.0763 1216.7389 1645.5178 C 1221.7383 1656.177 1248.5936 1655.0826 1250.0767 1645.5178 C 1269.7062 1655.0826 1274.1517 1643.3288 1268.041 1636.7703 Z M 1323.2349 1676.4069 L 1323.2349 1676.4069 C 1330.457 1678.8673 1338.9763 1670.3914 1327.3087 1667.1107 C 1332.8656 1661.644 1318.0459 1652.8964 1311.0096 1660.8237 C 1305.6385 1653.7166 1288.4139 1658.3633 1295.4502 1666.5649 C 1288.228 1672.0317 1293.0453 1679.6875 1304.3413 1677.227 C 1306.1923 1685.7002 1326.3832 1681.8737 1323.2349 1676.4069 Z" fill="#ffc0c0"/>
      </g>
    </g>
  </g>
</svg>
