<?xml version="1.0" encoding="UTF-8" standalone="no"?>
<!DOCTYPE svg PUBLIC "-//W3C//DTD SVG 1.1//EN" "http://www.w3.org/Graphics/SVG/1.1/DTD/svg11.dtd">
<svg version="1.1" xmlns:dc="http://purl.org/dc/elements/1.1/" xmlns:xl="http://www.w3.org/1999/xlink" xmlns="http://www.w3.org/2000/svg" viewBox="41.70111 1412.8004 402.67017 254.66102" width="402.67017" height="254.66102">
  <defs>
    <filter id="Shadow" filterUnits="userSpaceOnUse" x="1.4340942" y="1387.3343">
      <feGaussianBlur in="SourceAlpha" result="blur" stdDeviation="2.616"/>
      <feOffset in="blur" result="offset" dx="0" dy="2"/>
      <feFlood flood-color="black" flood-opacity=".5" result="flood"/>
      <feComposite in="flood" in2="offset" operator="in" result="color"/>
      <feMerge>
        <feMergeNode in="color"/>
        <feMergeNode in="SourceGraphic"/>
      </feMerge>
    </filter>
  </defs>
  <g id="Canvas_1" stroke-opacity="1" fill-opacity="1" fill="none" stroke-dasharray="none" stroke="none">
    <title>Canvas 1</title>
    <g id="Canvas_1_Layer_1">
      <title>Layer 1</title>
      <g id="Group_70">
        <g id="Graphic_72" filter="url(#Shadow)">
          <path d="M 390.16014 1440.9637 C 381.65537 1438.3931 347.06927 1417.8286 345.9353 1417.8286 C 344.80133 1417.8286 288.1028 1427.5968 288.1028 1427.5968 L 190.58137 1416.8004 L 182.64358 1430.1673 C 182.64358 1430.1673 86.2561 1439.4213 85.68912 1439.4213 C 85.12213 1439.4213 85.12213 1465.127 85.12213 1465.127 L 47.70111 1492.889 L 73.21544 1536.0745 L 95.89485 1536.5886 L 114.03837 1573.6047 L 166.201 1569.4918 L 237.64114 1591.5986 L 265.4234 1610.1066 L 276.7631 1628.1006 L 348.77023 1628.1006 L 361.8109 1646.0945 L 402.06683 1659.4614 C 402.06683 1659.4614 427.58116 1640.4393 428.14815 1640.9534 C 428.71513 1641.4675 417.9424 1613.1913 417.9424 1613.1913 L 370.31566 1609.0784 C 370.31566 1609.0784 355.57405 1567.9494 361.8109 1566.9212 C 368.04772 1565.893 428.71513 1528.3628 428.71513 1528.3628 L 438.3539 1474.8951 L 437.7869 1473.3528 C 437.7869 1473.3528 398.6649 1443.5342 390.16014 1440.9637 Z" fill="white"/>
        </g>
        <g id="Graphic_71">
          <path d="M 410.2938 1500.4606 C 442.88816 1489.557 417.88764 1453.9013 374.91526 1454.8722 C 380.65806 1439.8367 327.687 1416.8004 284.53254 1439.1091 C 279.16147 1422.3776 195.8188 1418.7397 184.14734 1445.9006 C 171.55415 1426.4996 75.98622 1436.9264 99.1357 1471.6038 C 61.72405 1466.7542 44.313577 1525.4388 106.36161 1527.1372 C 89.87666 1548.2342 150.62744 1567.3918 174.8883 1554.539 C 171.74 1572.4823 260.82548 1588.2454 278.05008 1559.3886 C 284.90427 1577.3319 373.80387 1565.45 360.28516 1541.2019 C 386.58672 1550.4169 441.40884 1521.0734 410.2938 1500.4606 Z M 347.5061 1606.9188 C 353.61683 1612.7368 349.1713 1623.1636 329.54183 1614.6787 C 328.0587 1623.1636 301.20335 1624.1345 296.204 1614.6787 C 281.75597 1620.4967 269.5307 1613.4644 277.4963 1604.0085 C 261.93686 1603.281 267.67966 1583.3958 288.9781 1591.1557 C 283.60702 1583.3958 315.46552 1576.1201 319.3535 1588.7296 C 326.5756 1581.9406 345.83712 1581.6973 345.4692 1593.3384 C 357.3227 1590.428 366.9535 1606.6754 347.5061 1606.9188 Z M 402.69994 1642.0804 C 405.84824 1646.93 385.6574 1650.3245 383.80636 1642.808 C 372.5104 1644.9906 367.69314 1638.1992 374.91526 1633.3496 C 367.879 1626.0739 385.1036 1621.9518 390.4747 1628.2566 C 397.51094 1621.2243 412.3307 1628.9842 406.77377 1633.8338 C 418.44144 1636.744 409.92206 1644.263 402.69994 1642.0804 Z" fill="#ffffc0"/>
        </g>
      </g>
    </g>
  </g>
</svg>
