<?xml version="1.0" encoding="UTF-8" standalone="no"?>
<!DOCTYPE svg PUBLIC "-//W3C//DTD SVG 1.1//EN" "http://www.w3.org/Graphics/SVG/1.1/DTD/svg11.dtd">
<svg xmlns:xl="http://www.w3.org/1999/xlink" xmlns:dc="http://purl.org/dc/elements/1.1/" version="1.1" xmlns="http://www.w3.org/2000/svg" viewBox="1025.1412 784.6489 396.67017 349.1778" width="396.67017" height="349.1778">
  <defs/>
  <g id="Canvas_1" stroke="none" fill-opacity="1" stroke-dasharray="none" stroke-opacity="1" fill="none">
    <title>Canvas 1</title>
    <g id="Canvas_1_Layer_1">
      <title>Layer 1</title>
      <g id="Graphic_37">
        <path d="M 1128.0596 797.1103 L 1128.0596 797.1103 C 1128.0596 797.1103 1128.0596 799.0418 1127.0933 799.0418 C 1126.127 799.0418 1071.0486 827.3697 1071.0486 827.3697 C 1071.0486 827.3697 1025.633 913.6412 1025.1499 916.2165 C 1024.6667 918.7918 1044.4756 1015.3643 1046.8914 1015.3643 C 1049.3071 1015.3643 1161.8797 1070.7326 1161.8797 1070.7326 L 1124.6776 1126.1009 C 1124.6776 1126.1009 1172.5089 1133.8267 1172.992 1133.8267 C 1173.4752 1133.8267 1230.9693 1077.8146 1232.4188 1077.1708 C 1233.8682 1076.527 1370.1149 1041.117 1370.1149 1041.117 C 1370.1149 1041.117 1421.8113 958.7084 1421.8113 957.4208 C 1421.8113 956.1332 1404.9013 853.1224 1404.9013 852.4786 C 1404.9013 851.8348 1304.8904 808.0552 1304.8904 807.4114 C 1304.8904 806.7676 1223.239 777.7958 1174.9246 786.1654 C 1126.6102 794.5351 1128.0596 797.1103 1128.0596 797.1103 Z M 1406.7392 929.2621 L 1406.7392 929.2621 C 1406.7392 998.2685 1330.6778 1054.7858 1234.571 1058.8433 C 1212.202 1087.2587 1179.4492 1119.108 1146.3409 1119.108 C 1163.5236 1105.6821 1174.4388 1078.517 1181.0619 1055.4093 C 1100.3456 1041.9834 1040.2133 990.4636 1040.2133 929.2621 C 1040.2133 857.4452 1122.1795 799.3675 1223.4763 799.3675 C 1324.773 799.3675 1406.7392 857.4452 1406.7392 929.2621 Z" fill="red"/>
      </g>
    </g>
  </g>
</svg>
