<?xml version="1.0" encoding="UTF-8" standalone="no"?>
<!DOCTYPE svg PUBLIC "-//W3C//DTD SVG 1.1//EN" "http://www.w3.org/Graphics/SVG/1.1/DTD/svg11.dtd">
<svg xmlns:xl="http://www.w3.org/1999/xlink" xmlns:dc="http://purl.org/dc/elements/1.1/" version="1.1" xmlns="http://www.w3.org/2000/svg" viewBox="578.7939 784.6489 396.67017 349.1778" width="396.67017" height="349.1778">
  <defs/>
  <g id="Canvas_1" stroke="none" fill-opacity="1" stroke-dasharray="none" stroke-opacity="1" fill="none">
    <title>Canvas 1</title>
    <g id="Canvas_1_Layer_1">
      <title>Layer 1</title>
      <g id="Graphic_38">
        <path d="M 681.7123 797.1103 L 681.7123 797.1103 C 681.7123 797.1103 681.7123 799.0418 680.746 799.0418 C 679.77975 799.0418 624.7013 827.3697 624.7013 827.3697 C 624.7013 827.3697 579.2857 913.6412 578.8026 916.2165 C 578.31944 918.7918 598.12836 1015.3643 600.5441 1015.3643 C 602.9598 1015.3643 715.5324 1070.7326 715.5324 1070.7326 L 678.3303 1126.1009 C 678.3303 1126.1009 726.1616 1133.8267 726.6447 1133.8267 C 727.1279 1133.8267 784.6221 1077.8146 786.0715 1077.1708 C 787.5209 1076.527 923.7676 1041.117 923.7676 1041.117 C 923.7676 1041.117 975.4641 958.7084 975.4641 957.4208 C 975.4641 956.1332 958.554 853.1224 958.554 852.4786 C 958.554 851.8348 858.5431 808.0552 858.5431 807.4114 C 858.5431 806.7676 776.89175 777.7958 728.5773 786.1654 C 680.2629 794.5351 681.7123 797.1103 681.7123 797.1103 Z M 960.3919 929.2621 L 960.3919 929.2621 C 960.3919 998.2685 884.3305 1054.7858 788.2237 1058.8433 C 765.8546 1087.2587 733.1019 1119.108 699.9936 1119.108 C 717.1763 1105.6821 728.0915 1078.517 734.7146 1055.4093 C 653.9983 1041.9834 593.866 990.4636 593.866 929.2621 C 593.866 857.4452 675.8322 799.3675 777.129 799.3675 C 878.4257 799.3675 960.3919 857.4452 960.3919 929.2621 Z" fill="#ccc"/>
      </g>
    </g>
  </g>
</svg>
