<?xml version="1.0" encoding="UTF-8" standalone="no"?>
<!DOCTYPE svg PUBLIC "-//W3C//DTD SVG 1.1//EN" "http://www.w3.org/Graphics/SVG/1.1/DTD/svg11.dtd">
<svg version="1.1" xmlns:dc="http://purl.org/dc/elements/1.1/" xmlns:xl="http://www.w3.org/1999/xlink" xmlns="http://www.w3.org/2000/svg" viewBox="956.3724 77.99726 402.65277 254.66102" width="402.65277" height="254.66102">
  <defs>
    <filter id="Shadow" filterUnits="userSpaceOnUse" x="916.1071" y="52.531156">
      <feGaussianBlur in="SourceAlpha" result="blur" stdDeviation="2.616"/>
      <feOffset in="blur" result="offset" dx="0" dy="2"/>
      <feFlood flood-color="black" flood-opacity=".5" result="flood"/>
      <feComposite in="flood" in2="offset" operator="in" result="color"/>
      <feMerge>
        <feMergeNode in="color"/>
        <feMergeNode in="SourceGraphic"/>
      </feMerge>
    </filter>
  </defs>
  <g id="Canvas_1" stroke-opacity="1" fill-opacity="1" fill="none" stroke-dasharray="none" stroke="none">
    <title>Canvas 1</title>
    <g id="Canvas_1_Layer_1">
      <title>Layer 1</title>
      <g id="Graphic_21" filter="url(#Shadow)">
        <path d="M 1010.5661 106.16054 L 1010.5661 106.16054 C 1002.0613 108.7311 962.9394 138.54961 962.9394 138.54961 L 962.3724 140.09195 L 972.0111 193.55963 C 972.0111 193.55963 1032.6785 231.08983 1038.9154 232.11806 C 1045.1522 233.14628 1030.4106 274.27527 1030.4106 274.27527 L 982.7838 278.38817 C 982.7838 278.38817 972.0111 306.66434 972.5781 306.15023 C 973.1451 305.63612 998.6594 324.65828 998.6594 324.65828 L 1038.9154 311.29136 L 1051.956 293.29742 L 1123.9631 293.29742 L 1135.3028 275.3035 L 1163.0851 256.79545 L 1234.5252 234.68862 L 1286.6879 238.80152 L 1304.8314 201.78543 L 1327.5108 201.27132 L 1353.0251 158.08588 L 1315.6041 130.32382 C 1315.6041 130.32382 1315.6041 104.6182 1315.0371 104.6182 C 1314.4702 104.6182 1218.0827 95.36418 1218.0827 95.36418 L 1210.1449 81.99726 L 1112.6234 92.79362 C 1112.6234 92.79362 1055.9249 83.02548 1054.791 83.02548 C 1053.657 83.02548 1019.0709 103.58998 1010.5661 106.16054 Z M 990.4325 165.65749 L 990.4325 165.65749 C 957.8381 154.75392 982.8386 119.09819 1025.811 120.0691 C 1020.0682 105.03356 1073.0393 81.99726 1116.1937 104.30599 C 1121.5648 87.57444 1204.9075 83.93661 1216.5789 111.09744 C 1229.1721 91.69649 1324.74 102.12329 1301.5906 136.80065 C 1339.0022 131.95104 1356.4127 190.63562 1294.3646 192.3341 C 1310.8496 213.43105 1250.0988 232.58865 1225.838 219.7358 C 1228.9862 237.67913 1139.9008 253.44225 1122.6762 224.58542 C 1115.822 242.52875 1026.9224 230.64682 1040.4411 206.39873 C 1014.1395 215.61375 959.3174 186.27022 990.4325 165.65749 Z M 1053.2202 272.11563 L 1053.2202 272.11563 C 1033.7728 271.87228 1043.4035 255.62495 1055.2571 258.5352 C 1054.8891 246.89415 1074.1507 247.1375 1081.3728 253.92647 C 1085.2607 241.31697 1117.1192 248.59263 1111.7482 256.3525 C 1133.0466 248.59263 1138.7894 268.4778 1123.23 269.20536 C 1131.1955 278.66125 1118.9703 285.69356 1104.5223 279.8755 C 1099.5229 289.3314 1072.6675 288.36048 1071.1844 279.8755 C 1051.555 288.36048 1047.1094 277.93368 1053.2202 272.11563 Z M 998.0263 307.2772 L 998.0263 307.2772 C 990.8042 309.4599 982.2848 301.9409 993.9525 299.03063 C 988.3956 294.181 1003.2153 286.42113 1010.2516 293.45345 C 1015.6226 287.1487 1032.8473 291.27075 1025.811 298.5464 C 1033.0331 303.39603 1028.2158 310.18748 1016.9199 308.00478 C 1015.0689 315.5213 994.878 312.12683 998.0263 307.2772 Z" fill="#ffc0c0"/>
      </g>
    </g>
  </g>
</svg>
