<?xml version="1.0" encoding="UTF-8" standalone="no"?>
<!DOCTYPE svg PUBLIC "-//W3C//DTD SVG 1.1//EN" "http://www.w3.org/Graphics/SVG/1.1/DTD/svg11.dtd">
<svg version="1.1" xmlns:dc="http://purl.org/dc/elements/1.1/" xmlns:xl="http://www.w3.org/1999/xlink" xmlns="http://www.w3.org/2000/svg" viewBox="923.0358 1032.3542 394.6434 314.70967" width="394.6434" height="314.70967">
  <defs>
    <filter id="Shadow" filterUnits="userSpaceOnUse" x="883.5715" y="1000.8832">
      <feGaussianBlur in="SourceAlpha" result="blur" stdDeviation="2.616"/>
      <feOffset in="blur" result="offset" dx="0" dy="2"/>
      <feFlood flood-color="black" flood-opacity=".5" result="flood"/>
      <feComposite in="flood" in2="offset" operator="in" result="color"/>
      <feMerge>
        <feMergeNode in="color"/>
        <feMergeNode in="SourceGraphic"/>
      </feMerge>
    </filter>
  </defs>
  <g id="Canvas_1" stroke-opacity="1" fill-opacity="1" fill="none" stroke-dasharray="none" stroke="none">
    <title>Canvas 1</title>
    <g id="Canvas_1_Layer_1">
      <title>Layer 1</title>
      <g id="Graphic_23" filter="url(#Shadow)">
        <path d="M 1264.4736 1066.4969 L 1264.4736 1066.4969 C 1272.804 1069.7036 1311.1239 1106.901 1311.1239 1106.901 L 1311.6793 1108.825 L 1302.2381 1175.5237 C 1302.2381 1175.5237 1242.8146 1222.3411 1236.7056 1223.6237 C 1230.5966 1224.9064 1245.036 1276.2131 1245.036 1276.2131 L 1291.6863 1281.3438 C 1291.6863 1281.3438 1302.2381 1316.6172 1301.6828 1315.9758 C 1301.1274 1315.3345 1276.1362 1339.0639 1276.1362 1339.0639 L 1236.7056 1322.3892 L 1223.9323 1299.9425 L 1153.4015 1299.9425 L 1142.2943 1277.4958 L 1115.0816 1254.4078 L 1045.1062 1226.8304 L 994.013 1231.9611 L 976.2415 1185.785 L 954.0271 1185.1437 L 929.0358 1131.2716 L 965.6896 1096.6396 C 965.6896 1096.6396 965.6896 1064.5729 966.245 1064.5729 C 966.8004 1064.5729 1061.2117 1053.0289 1061.2117 1053.0289 L 1068.9867 1036.3542 L 1164.5087 1049.8222 C 1164.5087 1049.8222 1220.0448 1037.6369 1221.1555 1037.6369 C 1222.2662 1037.6369 1256.1432 1063.2902 1264.4736 1066.4969 Z M 1284.1945 1140.7169 L 1284.1945 1140.7169 C 1316.1206 1127.1152 1291.6326 1082.6361 1249.5413 1083.8473 C 1255.1663 1065.091 1203.2813 1036.3542 1161.0116 1064.1834 C 1155.7507 1043.3115 1074.1168 1038.7735 1062.6846 1072.6555 C 1050.3496 1048.4536 956.741 1061.4606 979.4159 1104.7192 C 942.7713 1098.6695 925.7178 1171.8761 986.4937 1173.9949 C 970.3467 1200.3125 1029.8519 1224.2108 1053.6154 1208.1774 C 1050.5316 1230.561 1137.7906 1250.2248 1154.6621 1214.2271 C 1161.3757 1236.6107 1248.4527 1221.7884 1235.2111 1191.54 C 1260.9735 1203.0353 1314.6716 1166.4304 1284.1945 1140.7169 Z M 1222.6941 1273.5191 L 1222.6941 1273.5191 C 1241.7427 1273.2155 1232.3094 1252.9476 1220.699 1256.578 C 1221.0593 1242.0563 1202.1927 1242.3599 1195.1187 1250.8288 C 1191.3104 1235.099 1160.1051 1244.1751 1165.366 1253.8552 C 1144.5043 1244.1751 1138.8792 1268.981 1154.1196 1269.8886 C 1146.3174 1281.6845 1158.292 1290.457 1172.4438 1283.1992 C 1177.3407 1294.995 1203.6454 1293.7839 1205.0981 1283.1992 C 1224.3251 1293.7839 1228.6795 1280.7769 1222.6941 1273.5191 Z M 1276.7563 1317.3817 L 1276.7563 1317.3817 C 1283.8304 1320.1045 1292.175 1310.7249 1280.7466 1307.0944 C 1286.1896 1301.0447 1271.6737 1291.3646 1264.7817 1300.1371 C 1259.5208 1292.2722 1242.6493 1297.4143 1249.5413 1306.4904 C 1242.4672 1312.5401 1247.1857 1321.0121 1258.2501 1318.2893 C 1260.0632 1327.6659 1279.84 1323.4314 1276.7563 1317.3817 Z" fill="#c0c0ff"/>
      </g>
    </g>
  </g>
</svg>
