<?xml version="1.0" encoding="UTF-8" standalone="no"?>
<!DOCTYPE svg PUBLIC "-//W3C//DTD SVG 1.1//EN" "http://www.w3.org/Graphics/SVG/1.1/DTD/svg11.dtd">
<svg version="1.1" xmlns:dc="http://purl.org/dc/elements/1.1/" xmlns:xl="http://www.w3.org/1999/xlink" xmlns="http://www.w3.org/2000/svg" viewBox="495.05 1410.8004 402.65277 332.02224" width="402.65277" height="332.02224">
  <defs>
    <filter id="Shadow" filterUnits="userSpaceOnUse" x="454.7847" y="1377.5982">
      <feGaussianBlur in="SourceAlpha" result="blur" stdDeviation="2.616"/>
      <feFlood flood-color="black" flood-opacity=".5" result="flood"/>
      <feComposite in="flood" in2="blur" operator="in" result="color"/>
      <feMerge>
        <feMergeNode in="color"/>
        <feMergeNode in="SourceGraphic"/>
      </feMerge>
    </filter>
  </defs>
  <g id="Canvas_1" stroke-opacity="1" fill-opacity="1" fill="none" stroke-dasharray="none" stroke="none">
    <title>Canvas 1</title>
    <g id="Canvas_1_Layer_1">
      <title>Layer 1</title>
      <g id="Graphic_73" filter="url(#Shadow)">
        <path d="M 843.509 1448.667 L 843.509 1448.667 C 852.0138 1452.057 891.1358 1491.3819 891.1358 1491.3819 L 891.7028 1493.4159 L 882.064 1563.9293 C 882.064 1563.9293 821.3966 1613.4242 815.1598 1614.7803 C 808.9229 1616.1363 823.6645 1670.3773 823.6645 1670.3773 L 871.2913 1675.8014 C 871.2913 1675.8014 882.064 1713.0922 881.497 1712.4142 C 880.93 1711.7361 855.4157 1736.8226 855.4157 1736.8226 L 815.1598 1719.1943 L 802.1191 1695.4638 L 730.112 1695.4638 L 718.7723 1671.7334 L 690.99 1647.3249 L 619.5499 1618.1703 L 567.38725 1623.5944 L 549.2437 1574.7775 L 526.5643 1574.0995 L 501.05 1517.1464 L 538.471 1480.5336 C 538.471 1480.5336 538.471 1446.633 539.038 1446.633 C 539.605 1446.633 635.99245 1434.4287 635.99245 1434.4287 L 643.93025 1416.8004 L 741.4517 1431.0387 C 741.4517 1431.0387 798.1502 1418.1564 799.2842 1418.1564 C 800.41815 1418.1564 835.0042 1445.277 843.509 1448.667 Z M 863.6427 1527.1318 L 863.6427 1527.1318 C 896.237 1512.7521 871.2365 1465.7292 828.2641 1467.0097 C 834.0069 1447.1808 781.0359 1416.8004 737.8814 1446.2212 C 732.51035 1424.1556 649.1677 1419.358 637.4962 1455.1778 C 624.903 1429.5918 529.3351 1443.3427 552.4846 1489.0753 C 515.0729 1482.6796 497.66245 1560.073 559.7105 1562.313 C 543.22554 1590.1358 603.9763 1615.4009 628.2372 1598.4505 C 625.0889 1622.1142 714.17435 1642.9027 731.399 1604.8462 C 738.25315 1628.51 827.15275 1612.84 813.634 1580.8615 C 839.9356 1593.0143 894.7577 1554.316 863.6427 1527.1318 Z M 800.855 1667.5292 L 800.855 1667.5292 C 820.3024 1667.2083 810.6716 1645.7812 798.8181 1649.6193 C 799.186 1634.267 779.9245 1634.588 772.7024 1643.5413 C 768.8144 1626.9118 736.9559 1636.507 742.327 1646.7407 C 721.0285 1636.507 715.2857 1662.7316 730.8452 1663.6911 C 722.8796 1676.1616 735.10485 1685.4358 749.5529 1677.763 C 754.5522 1690.2334 781.4076 1688.953 782.8907 1677.763 C 802.5202 1688.953 806.9657 1675.202 800.855 1667.5292 Z M 856.0488 1713.9004 L 856.0488 1713.9004 C 863.2709 1716.779 871.7903 1706.8629 860.1226 1703.0248 C 865.6796 1696.6291 850.8598 1686.3953 843.8236 1695.6696 C 838.4525 1687.3549 821.2279 1692.791 828.2641 1702.3862 C 821.042 1708.782 825.8593 1717.7385 837.1552 1714.86 C 839.0063 1724.7728 859.1971 1720.2961 856.0488 1713.9004 Z" fill="white"/>
      </g>
    </g>
  </g>
</svg>
