<?xml version="1.0" encoding="UTF-8" standalone="no"?>
<!DOCTYPE svg PUBLIC "-//W3C//DTD SVG 1.1//EN" "http://www.w3.org/Graphics/SVG/1.1/DTD/svg11.dtd">
<svg xmlns:xl="http://www.w3.org/1999/xlink" xmlns:dc="http://purl.org/dc/elements/1.1/" version="1.1" xmlns="http://www.w3.org/2000/svg" viewBox="99.2521 765.5535 397.67017 350.1778" width="397.67017" height="350.1778">
  <defs/>
  <g id="Canvas_1" stroke="none" fill-opacity="1" stroke-dasharray="none" stroke-opacity="1" fill="none">
    <title>Canvas 1</title>
    <g id="Canvas_1_Layer_1">
      <title>Layer 1</title>
      <g id="Group_36">
        <g id="Graphic_25">
          <path d="M 482.0422 911.9453 C 482.0422 840.1284 400.07604 782.0507 298.77928 782.0507 C 197.48251 782.0507 115.51633 840.1284 115.51633 911.9453 C 115.51633 973.1468 175.64857 1024.6666 256.3649 1038.0925 C 249.74178 1061.2002 238.82663 1088.3653 221.6439 1101.7912 C 254.7522 1101.7912 287.50494 1069.9419 309.874 1041.5265 C 405.98077 1037.469 482.0422 980.9517 482.0422 911.9453 Z" fill="#ccc"/>
        </g>
        <g id="Graphic_28">
          <path d="M 249.53553 767.57 C 297.84996 759.2004 379.50135 788.1722 379.50135 788.816 C 379.50135 789.4598 479.5122 833.2394 479.5122 833.8832 C 479.5122 834.527 496.4223 937.5377 496.4223 938.8254 C 496.4223 940.113 444.72583 1022.5216 444.72583 1022.5216 C 444.72583 1022.5216 308.47914 1057.9315 307.0297 1058.5754 C 305.58027 1059.2192 248.0861 1115.2313 247.60296 1115.2313 C 247.1198 1115.2313 199.28852 1107.5055 199.28852 1107.5055 L 236.49064 1052.1372 C 236.49064 1052.1372 123.91801 996.7689 121.50229 996.7689 C 119.08657 996.7689 99.27765 900.1964 99.7608 897.6211 C 100.24394 895.0458 145.6595 808.7743 145.6595 808.7743 C 145.6595 808.7743 200.73796 780.4464 201.70425 780.4464 C 202.67053 780.4464 202.67053 778.5149 202.67053 778.5149 C 202.67053 778.5149 201.2211 775.9397 249.53553 767.57 Z" stroke="black" stroke-linecap="round" stroke-linejoin="round" stroke-width="1"/>
        </g>
      </g>
    </g>
  </g>
</svg>
