<?xml version="1.0" encoding="UTF-8" standalone="no"?>
<!DOCTYPE svg PUBLIC "-//W3C//DTD SVG 1.1//EN" "http://www.w3.org/Graphics/SVG/1.1/DTD/svg11.dtd">
<svg version="1.1" xmlns:dc="http://purl.org/dc/elements/1.1/" xmlns:xl="http://www.w3.org/1999/xlink" xmlns="http://www.w3.org/2000/svg" viewBox="499.26545 541.67846 382.8934 302.95967" width="382.8934" height="302.95967">
  <defs/>
  <g id="Canvas_1" stroke-opacity="1" fill-opacity="1" fill="none" stroke-dasharray="none" stroke="none">
    <title>Canvas 1</title>
    <g id="Canvas_1_Layer_1">
      <title>Layer 1</title>
      <g id="Graphic_79">
        <path d="M 546.5961 571.94616 L 546.5961 571.94616 C 538.2657 575.1528 499.9458 612.3502 499.9458 612.3502 L 499.39045 614.2742 L 508.8316 680.97295 C 508.8316 680.97295 568.25516 727.7903 574.3641 729.073 C 580.4731 730.3557 566.0337 781.6624 566.0337 781.6624 L 519.38343 786.7931 C 519.38343 786.7931 508.8316 822.0664 509.38694 821.4251 C 509.9423 820.7838 534.9335 844.5131 534.9335 844.5131 L 574.3641 827.8384 L 587.1374 805.3918 L 657.6682 805.3918 L 668.7754 782.9451 L 695.9881 759.857 L 765.9635 732.2797 L 817.0567 737.4103 L 834.8282 691.2343 L 857.0427 690.59296 L 882.0339 636.7209 L 845.3801 602.08886 C 845.3801 602.08886 845.3801 570.02216 844.8247 570.02216 C 844.2694 570.02216 749.8581 558.47814 749.8581 558.47814 L 742.083 541.80346 L 646.561 555.2715 C 646.561 555.2715 591.02495 543.0861 589.9142 543.0861 C 588.8035 543.0861 554.9265 568.7395 546.5961 571.94616 Z M 526.87524 646.1662 L 526.87524 646.1662 C 494.94914 632.5644 519.4371 588.08535 561.5284 589.2965 C 555.9034 570.5403 607.7884 541.80346 650.0581 569.6327 C 655.319 548.76076 736.953 544.2227 748.3851 578.10474 C 760.7201 553.90285 854.3287 566.90986 831.6538 610.16845 C 868.2984 604.11875 885.352 677.32536 824.5761 679.44415 C 840.723 705.7617 781.2178 729.66005 757.4543 713.62664 C 760.5381 736.0102 673.2791 755.6741 656.4076 719.6763 C 649.694 742.0599 562.617 727.2377 575.8586 696.9892 C 550.09626 708.48455 496.3981 671.8797 526.87524 646.1662 Z M 588.3756 778.9683 L 588.3756 778.9683 C 569.327 778.6648 578.7603 758.3969 590.3708 762.0273 C 590.0104 747.5056 608.877 747.8091 615.95105 756.2781 C 619.7593 740.5483 650.9646 749.6244 645.7037 759.3045 C 666.5654 749.6244 672.1905 774.4303 656.9501 775.3379 C 664.7523 787.1337 652.7777 795.90625 638.6259 788.6485 C 633.72906 800.4443 607.4243 799.2331 605.9716 788.6485 C 586.7446 799.2331 582.3902 786.2261 588.3756 778.9683 Z M 534.3134 822.831 L 534.3134 822.831 C 527.23935 825.5538 518.89465 816.1741 530.3231 812.5437 C 524.8801 806.494 539.396 796.8139 546.288 805.5864 C 551.54896 797.7215 568.4204 802.8636 561.5284 811.93965 C 568.6025 817.98935 563.88397 826.4614 552.8196 823.7386 C 551.0065 833.1151 531.22965 828.8807 534.3134 822.831 Z" fill="#c0ffc0"/>
        <path d="M 546.5961 571.94616 L 546.5961 571.94616 C 538.2657 575.1528 499.9458 612.3502 499.9458 612.3502 L 499.39045 614.2742 L 508.8316 680.97295 C 508.8316 680.97295 568.25516 727.7903 574.3641 729.073 C 580.4731 730.3557 566.0337 781.6624 566.0337 781.6624 L 519.38343 786.7931 C 519.38343 786.7931 508.8316 822.0664 509.38694 821.4251 C 509.9423 820.7838 534.9335 844.5131 534.9335 844.5131 L 574.3641 827.8384 L 587.1374 805.3918 L 657.6682 805.3918 L 668.7754 782.9451 L 695.9881 759.857 L 765.9635 732.2797 L 817.0567 737.4103 L 834.8282 691.2343 L 857.0427 690.59296 L 882.0339 636.7209 L 845.3801 602.08886 C 845.3801 602.08886 845.3801 570.02216 844.8247 570.02216 C 844.2694 570.02216 749.8581 558.47814 749.8581 558.47814 L 742.083 541.80346 L 646.561 555.2715 C 646.561 555.2715 591.02495 543.0861 589.9142 543.0861 C 588.8035 543.0861 554.9265 568.7395 546.5961 571.94616 Z M 526.87524 646.1662 L 526.87524 646.1662 C 494.94914 632.5644 519.4371 588.08535 561.5284 589.2965 C 555.9034 570.5403 607.7884 541.80346 650.0581 569.6327 C 655.319 548.76076 736.953 544.2227 748.3851 578.10474 C 760.7201 553.90285 854.3287 566.90986 831.6538 610.16845 C 868.2984 604.11875 885.352 677.32536 824.5761 679.44415 C 840.723 705.7617 781.2178 729.66005 757.4543 713.62664 C 760.5381 736.0102 673.2791 755.6741 656.4076 719.6763 C 649.694 742.0599 562.617 727.2377 575.8586 696.9892 C 550.09626 708.48455 496.3981 671.8797 526.87524 646.1662 Z M 588.3756 778.9683 L 588.3756 778.9683 C 569.327 778.6648 578.7603 758.3969 590.3708 762.0273 C 590.0104 747.5056 608.877 747.8091 615.95105 756.2781 C 619.7593 740.5483 650.9646 749.6244 645.7037 759.3045 C 666.5654 749.6244 672.1905 774.4303 656.9501 775.3379 C 664.7523 787.1337 652.7777 795.90625 638.6259 788.6485 C 633.72906 800.4443 607.4243 799.2331 605.9716 788.6485 C 586.7446 799.2331 582.3902 786.2261 588.3756 778.9683 Z M 534.3134 822.831 L 534.3134 822.831 C 527.23935 825.5538 518.89465 816.1741 530.3231 812.5437 C 524.8801 806.494 539.396 796.8139 546.288 805.5864 C 551.54896 797.7215 568.4204 802.8636 561.5284 811.93965 C 568.6025 817.98935 563.88397 826.4614 552.8196 823.7386 C 551.0065 833.1151 531.22965 828.8807 534.3134 822.831 Z" stroke="#a5a5a5" stroke-linecap="round" stroke-linejoin="round" stroke-width=".25"/>
      </g>
    </g>
  </g>
</svg>
