<?xml version="1.0" encoding="UTF-8" standalone="no"?>
<!DOCTYPE svg PUBLIC "-//W3C//DTD SVG 1.1//EN" "http://www.w3.org/Graphics/SVG/1.1/DTD/svg11.dtd">
<svg version="1.1" xmlns:dc="http://purl.org/dc/elements/1.1/" xmlns:xl="http://www.w3.org/1999/xlink" xmlns="http://www.w3.org/2000/svg" viewBox="1493.1838 544.94945 438.145 307.11835" width="438.145" height="307.11835">
  <defs/>
  <g id="Canvas_1" stroke-opacity="1" fill-opacity="1" fill="none" stroke-dasharray="none" stroke="none">
    <title>Canvas 1</title>
    <g id="Canvas_1_Layer_1">
      <title>Layer 1</title>
      <g id="Group_83">
        <g id="Graphic_85">
          <path d="M 1658.7507 546.779 C 1711.995 539.4415 1801.9777 564.8406 1801.9777 565.405 C 1801.9777 565.9694 1912.1934 604.3502 1912.1934 604.91466 C 1912.1934 605.4791 1930.8289 695.7869 1930.8289 696.9157 C 1930.8289 698.0446 1873.8575 770.2908 1873.8575 770.2908 C 1873.8575 770.2908 1723.7087 801.3341 1722.1113 801.8985 C 1720.514 802.4629 1657.1533 851.5678 1656.6209 851.5678 C 1656.0884 851.5678 1603.3766 844.7947 1603.3766 844.7947 L 1644.3747 796.2543 C 1644.3747 796.2543 1520.3156 747.71385 1517.6533 747.71385 C 1514.9911 747.71385 1493.161 663.0503 1493.6934 660.7926 C 1494.2259 658.5349 1544.2755 582.9021 1544.2755 582.9021 C 1544.2755 582.9021 1604.974 558.0675 1606.0388 558.0675 C 1607.1037 558.0675 1607.1037 556.3742 1607.1037 556.3742 C 1607.1037 556.3742 1605.5064 554.1165 1658.7507 546.779 Z" fill="white"/>
          <path d="M 1658.7507 546.779 C 1711.995 539.4415 1801.9777 564.8406 1801.9777 565.405 C 1801.9777 565.9694 1912.1934 604.3502 1912.1934 604.91466 C 1912.1934 605.4791 1930.8289 695.7869 1930.8289 696.9157 C 1930.8289 698.0446 1873.8575 770.2908 1873.8575 770.2908 C 1873.8575 770.2908 1723.7087 801.3341 1722.1113 801.8985 C 1720.514 802.4629 1657.1533 851.5678 1656.6209 851.5678 C 1656.0884 851.5678 1603.3766 844.7947 1603.3766 844.7947 L 1644.3747 796.2543 C 1644.3747 796.2543 1520.3156 747.71385 1517.6533 747.71385 C 1514.9911 747.71385 1493.161 663.0503 1493.6934 660.7926 C 1494.2259 658.5349 1544.2755 582.9021 1544.2755 582.9021 C 1544.2755 582.9021 1604.974 558.0675 1606.0388 558.0675 C 1607.1037 558.0675 1607.1037 556.3742 1607.1037 556.3742 C 1607.1037 556.3742 1605.5064 554.1165 1658.7507 546.779 Z" stroke="#a5a5a5" stroke-linecap="round" stroke-linejoin="round" stroke-width="1"/>
        </g>
        <g id="Graphic_84">
          <path d="M 1905.7572 672.22946 C 1905.7572 609.2688 1815.4275 558.35306 1703.7947 558.35306 C 1592.162 558.35306 1501.8323 609.2688 1501.8323 672.22946 C 1501.8323 725.8838 1568.1002 771.05035 1657.0525 782.8206 C 1649.7536 803.0787 1637.7247 826.8939 1618.7887 838.6642 C 1655.2753 838.6642 1691.37 810.7424 1716.0215 785.8312 C 1821.9347 782.274 1905.7572 732.7262 1905.7572 672.22946 Z" fill="#f2dcfd"/>
        </g>
      </g>
    </g>
  </g>
</svg>
