<?xml version="1.0" encoding="UTF-8" standalone="no"?>
<!DOCTYPE svg PUBLIC "-//W3C//DTD SVG 1.1//EN" "http://www.w3.org/Graphics/SVG/1.1/DTD/svg11.dtd">
<svg version="1.1" xmlns:dc="http://purl.org/dc/elements/1.1/" xmlns:xl="http://www.w3.org/1999/xlink" xmlns="http://www.w3.org/2000/svg" viewBox="945.2546 544.8581 394.6434 314.70967" width="394.6434" height="314.70967">
  <defs>
    <filter id="Shadow" filterUnits="userSpaceOnUse" x="905.7902" y="513.38716">
      <feGaussianBlur in="SourceAlpha" result="blur" stdDeviation="2.616"/>
      <feOffset in="blur" result="offset" dx="0" dy="2"/>
      <feFlood flood-color="black" flood-opacity=".5" result="flood"/>
      <feComposite in="flood" in2="offset" operator="in" result="color"/>
      <feMerge>
        <feMergeNode in="color"/>
        <feMergeNode in="SourceGraphic"/>
      </feMerge>
    </filter>
  </defs>
  <g id="Canvas_1" stroke-opacity="1" fill-opacity="1" fill="none" stroke-dasharray="none" stroke="none">
    <title>Canvas 1</title>
    <g id="Canvas_1_Layer_1">
      <title>Layer 1</title>
      <g id="Graphic_80" filter="url(#Shadow)">
        <path d="M 998.4602 579.0008 L 998.4602 579.0008 C 990.1298 582.2075 951.81 619.4049 951.81 619.4049 L 951.2546 621.3289 L 960.6957 688.0276 C 960.6957 688.0276 1020.1193 734.845 1026.2283 736.1277 C 1032.3372 737.4103 1017.8979 788.7171 1017.8979 788.7171 L 971.2476 793.8477 C 971.2476 793.8477 960.6957 829.1211 961.2511 828.4798 C 961.8064 827.8384 986.7977 851.5678 986.7977 851.5678 L 1026.2283 834.8931 L 1039.0016 812.4464 L 1109.5323 812.4464 L 1120.6396 789.9997 L 1147.8522 766.9117 L 1217.8277 739.33435 L 1268.9208 744.465 L 1286.6924 698.289 L 1308.9068 697.6476 L 1333.898 643.7756 L 1297.2442 609.1435 C 1297.2442 609.1435 1297.2442 577.0768 1296.6889 577.0768 C 1296.1335 577.0768 1201.7222 565.5328 1201.7222 565.5328 L 1193.9472 548.8581 L 1098.4251 562.32615 C 1098.4251 562.32615 1042.8891 550.1408 1041.7784 550.1408 C 1040.6676 550.1408 1006.7906 575.79416 998.4602 579.0008 Z M 978.7394 653.2208 L 978.7394 653.2208 C 946.8133 639.6191 971.3012 595.14 1013.3926 596.3512 C 1007.7675 577.595 1059.6525 548.8581 1101.9222 576.68736 C 1107.1832 555.81544 1188.8171 551.2774 1200.2493 585.1594 C 1212.5843 560.9575 1306.1928 573.9645 1283.518 617.2231 C 1320.1626 611.1734 1337.2161 684.38 1276.4402 686.4988 C 1292.5872 712.8164 1233.0819 736.7147 1209.3185 720.6813 C 1212.4022 743.0649 1125.1432 762.7287 1108.2718 726.731 C 1101.5581 749.1146 1014.4812 734.2924 1027.7227 704.0439 C 1001.9604 715.5392 948.2623 678.9344 978.7394 653.2208 Z M 1040.2398 786.023 L 1040.2398 786.023 C 1021.1911 785.7194 1030.6244 765.4516 1042.2349 769.082 C 1041.8745 754.5602 1060.7411 754.8638 1067.8152 763.3328 C 1071.6234 747.6029 1102.8288 756.679 1097.5678 766.3592 C 1118.4296 756.679 1124.0546 781.485 1108.8142 782.3926 C 1116.6165 794.1884 1104.6419 802.9609 1090.49 795.7031 C 1085.5932 807.499 1059.2884 806.2878 1057.8357 795.7031 C 1038.6087 806.2878 1034.2543 793.2808 1040.2398 786.023 Z M 986.1775 829.8856 L 986.1775 829.8856 C 979.1035 832.6085 970.7588 823.2288 982.1872 819.5984 C 976.7442 813.5487 991.2601 803.8685 998.1521 812.6411 C 1003.4131 804.7761 1020.2846 809.9182 1013.3926 818.9943 C 1020.4666 825.044 1015.7481 833.5161 1004.6838 830.79325 C 1002.8707 840.1698 983.0938 835.9353 986.1775 829.8856 Z" fill="#ffffc0"/>
      </g>
    </g>
  </g>
</svg>
