<?xml version="1.0" encoding="UTF-8" standalone="no"?>
<!DOCTYPE svg PUBLIC "-//W3C//DTD SVG 1.1//EN" "http://www.w3.org/Graphics/SVG/1.1/DTD/svg11.dtd">
<svg version="1.1" xmlns:dc="http://purl.org/dc/elements/1.1/" xmlns:xl="http://www.w3.org/1999/xlink" xmlns="http://www.w3.org/2000/svg" viewBox="495.05 70.34202 402.65277 254.66102" width="402.65277" height="254.66102">
  <defs>
    <filter id="Shadow" filterUnits="userSpaceOnUse" x="454.7847" y="44.87592">
      <feGaussianBlur in="SourceAlpha" result="blur" stdDeviation="2.616"/>
      <feFlood flood-color="black" flood-opacity=".5" result="flood"/>
      <feComposite in="flood" in2="blur" operator="in" result="color"/>
      <feMerge>
        <feMergeNode in="color"/>
        <feMergeNode in="SourceGraphic"/>
      </feMerge>
    </filter>
  </defs>
  <g id="Canvas_1" stroke-opacity="1" fill-opacity="1" fill="none" stroke-dasharray="none" stroke="none">
    <title>Canvas 1</title>
    <g id="Canvas_1_Layer_1">
      <title>Layer 1</title>
      <g id="Graphic_20" filter="url(#Shadow)">
        <path d="M 549.2437 100.5053 L 549.2437 100.5053 C 540.73895 103.07586 501.617 132.89438 501.617 132.89438 L 501.05 134.43671 L 510.68874 187.9044 C 510.68874 187.9044 571.35615 225.4346 577.593 226.46282 C 583.8298 227.49105 569.0882 268.62003 569.0882 268.62003 L 521.46145 272.73293 C 521.46145 272.73293 510.68874 301.0091 511.2557 300.495 C 511.8227 299.9809 537.33704 319.00304 537.33704 319.00304 L 577.593 305.63612 L 590.63364 287.6422 L 662.64076 287.6422 L 673.98046 269.64826 L 701.7627 251.1402 L 773.2029 229.03338 L 825.3655 233.14628 L 843.509 196.1302 L 866.1884 195.61608 L 891.7028 152.43065 L 854.2817 124.66858 C 854.2817 124.66858 854.2817 98.96296 853.7148 98.96296 C 853.1478 98.96296 756.7603 89.70894 756.7603 89.70894 L 748.8225 76.34202 L 651.30105 87.13838 C 651.30105 87.13838 594.60254 77.37025 593.4686 77.37025 C 592.3346 77.37025 557.7485 97.93474 549.2437 100.5053 Z M 529.1101 160.00225 L 529.1101 160.00225 C 496.5157 149.09868 521.51623 113.44295 564.4886 114.41387 C 558.7458 99.37832 611.7169 76.34202 654.8713 98.65075 C 660.2424 81.91921 743.5851 78.28137 755.2565 105.4422 C 767.8497 86.04125 863.4177 96.46805 840.2682 131.14542 C 877.6798 126.2958 895.0903 184.98038 833.0423 186.67887 C 849.5272 207.77582 788.7764 226.93341 764.5156 214.08056 C 767.6639 232.0239 678.5784 247.787 661.3538 218.93018 C 654.4996 236.8735 565.6 224.99158 579.1187 200.7435 C 552.81715 209.95852 497.995 180.61498 529.1101 160.00225 Z M 591.8978 266.4604 L 591.8978 266.4604 C 572.4504 266.21705 582.08115 249.9697 593.9347 252.87998 C 593.56675 241.2389 612.8283 241.48226 620.0504 248.27123 C 623.93835 235.66173 655.79685 242.9374 650.4258 250.69728 C 671.7242 242.9374 677.467 262.82256 661.9076 263.55013 C 669.87316 273.006 657.6479 280.03833 643.1999 274.22028 C 638.2005 283.67616 611.34515 282.70524 609.86204 274.22028 C 590.2326 282.70524 585.78704 272.27845 591.8978 266.4604 Z M 536.7039 301.62198 L 536.7039 301.62198 C 529.4818 303.80468 520.96243 296.28566 532.6301 293.3754 C 527.07317 288.52578 541.8929 280.7659 548.9292 287.7982 C 554.30026 281.49346 571.5249 285.6155 564.4886 292.89118 C 571.7107 297.7408 566.89345 304.53224 555.5975 302.34954 C 553.74646 309.86608 533.5556 306.4716 536.7039 301.62198 Z" fill="white"/>
      </g>
    </g>
  </g>
</svg>
