<?xml version="1.0" encoding="UTF-8" standalone="no"?>
<!DOCTYPE svg PUBLIC "-//W3C//DTD SVG 1.1//EN" "http://www.w3.org/Graphics/SVG/1.1/DTD/svg11.dtd">
<svg version="1.1" xmlns:dc="http://purl.org/dc/elements/1.1/" xmlns:xl="http://www.w3.org/1999/xlink" xmlns="http://www.w3.org/2000/svg" viewBox="1503.8716 28.091053 397.67017 350.1778" width="397.67017" height="350.1778">
  <defs/>
  <g id="Canvas_1" stroke-opacity="1" fill-opacity="1" fill="none" stroke-dasharray="none" stroke="none">
    <title>Canvas 1</title>
    <g id="Canvas_1_Layer_1">
      <title>Layer 1</title>
      <g id="Group_36">
        <g id="Graphic_25">
          <path d="M 1886.6617 174.48291 C 1886.6617 102.666 1804.6955 44.58834 1703.3988 44.58834 C 1602.102 44.58834 1520.1358 102.666 1520.1358 174.48291 C 1520.1358 235.68444 1580.268 287.20423 1660.9844 300.63013 C 1654.3613 323.73778 1643.4461 350.90293 1626.2634 364.32883 C 1659.3717 364.32883 1692.1244 332.4795 1714.4935 304.06414 C 1810.6002 300.00664 1886.6617 243.4893 1886.6617 174.48291 Z" fill="#ccc"/>
        </g>
        <g id="Graphic_28">
          <path d="M 1654.155 30.107637 C 1702.4694 21.738015 1784.1208 50.709784 1784.1208 51.3536 C 1784.1208 51.99742 1884.1317 95.77698 1884.1317 96.4208 C 1884.1317 97.06461 1901.0417 200.07535 1901.0417 201.36298 C 1901.0417 202.65061 1849.3453 285.0592 1849.3453 285.0592 C 1849.3453 285.0592 1713.0986 320.46914 1711.6492 321.11296 C 1710.1997 321.75677 1652.7056 377.76886 1652.2224 377.76886 C 1651.7393 377.76886 1603.908 370.04305 1603.908 370.04305 L 1641.1101 314.6748 C 1641.1101 314.6748 1528.5375 259.30652 1526.1218 259.30652 C 1523.706 259.30652 1503.8971 162.73396 1504.3803 160.15869 C 1504.8634 157.58342 1550.279 71.31193 1550.279 71.31193 C 1550.279 71.31193 1605.3574 42.98398 1606.3237 42.98398 C 1607.29 42.98398 1607.29 41.05253 1607.29 41.05253 C 1607.29 41.05253 1605.8406 38.47726 1654.155 30.107637 Z" stroke="black" stroke-linecap="round" stroke-linejoin="round" stroke-width="1"/>
        </g>
      </g>
    </g>
  </g>
</svg>
