<?xml version="1.0" encoding="UTF-8" standalone="no"?>
<!DOCTYPE svg PUBLIC "-//W3C//DTD SVG 1.1//EN" "http://www.w3.org/Graphics/SVG/1.1/DTD/svg11.dtd">
<svg xmlns="http://www.w3.org/2000/svg" xmlns:xl="http://www.w3.org/1999/xlink" version="1.1" xmlns:dc="http://purl.org/dc/elements/1.1/" viewBox="301.72746 325.4746 307.75677 39.75547" width="307.75677" height="39.75547">
  <defs/>
  <g id="Canvas_1" stroke="none" stroke-opacity="1" stroke-dasharray="none" fill="none" fill-opacity="1">
    <title>Canvas 1</title>
    <g id="Canvas_1_Layer_1">
      <title>Layer 1</title>
      <g id="Group_50">
        <g id="Graphic_14">
          <rect x="301.72746" y="334.39734" width="307.75677" height="25.79999" fill="#ffda00"/>
        </g>
        <g id="Group_37">
          <title>(  )</title>
          <g id="Graphic_35">
            <path d="M 323.26434 329.80233 L 326.71746 331.13045 C 325.51108 334.01914 324.6644 336.68643 324.17742 339.1324 C 323.93393 340.372 323.7513 341.6752 323.62957 343.04208 C 323.50783 344.40894 323.44695 345.9003 323.44695 347.5162 C 323.44695 349.14316 323.50783 350.64005 323.62957 352.0069 C 323.7513 353.3738 323.93393 354.677 324.17742 355.9166 C 324.65334 358.3515 325.5 361.01325 326.71746 363.90194 L 323.26434 365.23006 C 320.85156 360.1721 319.6452 354.26753 319.6452 347.5162 C 319.6452 340.76486 320.85156 334.8603 323.26434 329.80233 Z" fill="black"/>
          </g>
          <g id="Graphic_36">
            <path d="M 355.7702 365.23006 L 352.31707 363.90194 C 353.53452 361.01325 354.3812 358.3515 354.8571 355.9166 C 355.35516 353.4817 355.6042 350.68158 355.6042 347.5162 C 355.6042 344.37295 355.35516 341.5784 354.8571 339.1324 C 354.37013 336.68643 353.52346 334.01914 352.31707 331.13045 L 355.7702 329.80233 C 358.18297 334.8603 359.38934 340.76486 359.38934 347.5162 C 359.38934 354.26753 358.18297 360.1721 355.7702 365.23006 Z" fill="black"/>
          </g>
        </g>
        <g id="Graphic_38">
          <title>m</title>
          <path d="M 345.67427 335.8616 C 343.04227 335.8616 341.67927 338.3056 341.67927 338.3056 C 341.67927 338.3056 340.69227 335.8616 337.77827 335.8616 C 335.38127 335.8616 334.01827 337.1306 333.40727 338.3056 L 333.40727 338.1176 C 333.40727 337.0366 332.65527 336.2376 331.71527 336.2376 L 327.62627 336.2376 L 327.62627 339.7156 L 330.02327 339.7156 L 330.02327 358.3746 L 333.40727 358.3746 L 333.40727 341.9246 C 333.40727 341.3606 333.54827 340.8436 333.83027 340.4206 C 334.39427 339.5276 335.38127 339.2456 335.99227 339.2456 C 337.16727 339.2456 338.57727 339.9036 338.57727 341.7366 L 338.57727 358.3746 L 341.96127 358.3746 L 341.96127 341.9246 C 341.96127 340.3736 342.99527 339.2926 344.49927 339.2926 C 345.86227 339.2926 347.17827 340.0446 347.17827 341.8306 L 347.22527 358.3746 L 350.56227 358.3746 L 350.56227 342.0186 C 350.56227 338.4466 349.10527 335.8616 345.67427 335.8616 Z" fill="black"/>
        </g>
        <g id="Group_49">
          <title>otherboard</title>
          <g id="Graphic_39">
            <path d="M 380.35677 338.9636 C 378.33577 336.8486 375.46877 335.8146 372.31977 335.8616 C 369.02977 335.8616 366.20977 336.8016 364.18877 338.9636 C 362.16777 341.0786 361.08677 343.9926 361.13377 347.2826 C 361.08677 350.6666 362.16777 353.5806 364.18877 355.6486 C 366.16277 357.7636 368.88877 358.7976 372.03777 358.7976 L 372.22577 358.7976 C 375.46877 358.8446 378.33577 357.8106 380.35677 355.6486 C 382.37777 353.5806 383.45877 350.7136 383.41177 347.3296 C 383.45877 343.9456 382.37777 341.0316 380.35677 338.9636 Z M 380.07477 347.3296 C 380.12177 349.8676 379.46377 351.8416 378.05377 353.2516 C 376.73777 354.6146 374.71677 355.4136 372.22577 355.3196 C 369.82877 355.3666 367.80777 354.6146 366.49177 353.2516 C 365.08177 351.8416 364.42377 349.8676 364.47077 347.2826 C 364.42377 344.7916 365.08177 342.8176 366.49177 341.4076 C 367.80777 340.0446 369.87577 339.2926 372.31977 339.3396 C 374.71677 339.2456 376.73777 340.0446 378.05377 341.4076 C 379.46377 342.8176 380.12177 344.7916 380.07477 347.2826 Z" fill="black"/>
          </g>
          <g id="Graphic_40">
            <path d="M 385.83777 339.7626 L 391.47777 339.7626 L 391.47777 353.0166 C 391.47777 355.9776 393.82777 358.3746 396.74177 358.3746 L 404.82577 358.3746 L 404.82577 354.8966 L 396.74177 354.8966 C 395.80177 354.8966 394.81477 354.1446 394.81477 353.0166 L 394.81477 339.7626 L 404.82577 339.7626 L 404.82577 336.2846 L 394.81477 336.2846 L 394.81477 325.4746 L 391.47777 325.4746 L 391.47777 336.2846 L 385.83777 336.2846 Z" fill="black"/>
          </g>
          <g id="Graphic_41">
            <path d="M 410.68277 358.3746 L 414.01977 358.3746 L 414.01977 345.4496 C 414.01977 341.8306 416.36977 339.1986 419.98877 339.1986 C 422.99677 339.1986 426.09877 341.1256 426.09877 344.7916 L 426.09877 358.3746 L 429.48277 358.3746 L 429.48277 344.4156 C 429.48277 339.9506 426.09877 335.8616 421.49277 335.8616 C 416.22877 335.8616 414.01977 339.2926 414.01977 339.2926 L 414.01977 325.4746 L 410.68277 325.4746 Z" fill="black"/>
          </g>
          <g id="Graphic_42">
            <path d="M 454.42177 347.4236 C 454.42177 347.4236 454.46877 347.3766 454.46877 347.3296 C 454.46877 346.4366 454.37477 345.5436 454.23377 344.6976 C 453.81077 342.4416 452.87077 340.4676 451.41377 338.9636 C 449.39277 336.8486 446.52577 335.8146 443.37677 335.8616 C 440.08677 335.8616 437.26677 336.8016 435.24577 338.9636 C 433.22477 341.0786 432.14377 343.9926 432.19077 347.2826 C 432.14377 350.6666 433.22477 353.5806 435.24577 355.6486 C 437.21977 357.7636 439.94577 358.7976 443.09477 358.7976 L 443.28277 358.7976 C 446.52577 358.8446 449.39277 357.8106 451.41377 355.6486 C 452.02477 355.0376 452.49477 354.3326 452.91777 353.5806 L 450.05077 352.0296 C 449.76877 352.4996 449.48677 352.8756 449.11077 353.2516 C 447.79477 354.6146 445.77377 355.4136 443.28277 355.3196 C 440.88577 355.3666 438.86477 354.6146 437.54877 353.2516 C 436.18577 351.8416 435.52777 349.9146 435.52777 347.4236 L 451.13177 347.4236 Z M 443.37677 339.3396 C 445.77377 339.2456 447.79477 340.0446 449.11077 341.4076 C 449.95677 342.2066 450.47377 343.2876 450.80277 344.5096 L 435.85677 344.5096 C 436.18577 343.2876 436.70277 342.2066 437.54877 341.4076 C 438.86477 340.0446 440.93277 339.2926 443.37677 339.3396 Z" fill="black"/>
          </g>
          <g id="Graphic_43">
            <path d="M 458.68077 336.2846 L 458.68077 339.7626 L 463.4278 339.7626 L 463.4278 354.8966 L 458.72777 354.8966 L 458.72777 358.3746 L 474.0028 358.3746 L 474.0028 354.8966 L 466.8118 354.8966 L 466.8118 345.4496 C 466.8118 341.4546 469.1148 339.2456 472.9218 339.2456 C 474.0968 339.2456 475.5538 339.5276 476.6818 340.3736 L 478.9848 337.5066 C 477.5748 336.4256 475.9768 335.8616 474.1908 335.8616 C 468.8328 335.8616 466.8118 339.1516 466.8118 339.1516 L 466.8118 337.7886 C 466.8118 336.8956 465.9658 336.2846 465.1198 336.2846 Z" fill="black"/>
          </g>
          <g id="Graphic_44">
            <path d="M 501.5268 349.7736 C 501.6208 348.6456 501.5738 347.4706 501.5738 346.3426 C 501.5738 343.5226 500.9628 340.8436 499.2708 338.8696 C 497.5788 336.8956 495.3228 335.8616 492.7378 335.8616 C 486.5338 335.8616 484.5598 339.8096 484.5598 339.8096 L 484.5598 325.4746 L 481.1758 325.4746 L 481.1758 354.8966 L 478.8258 354.8966 L 478.8258 358.3746 L 482.8678 358.3746 C 483.8548 358.3746 484.5598 357.6226 484.5598 356.5886 L 484.5598 354.8496 C 484.5598 354.8496 486.3928 358.7976 492.7848 358.7976 C 497.8138 358.7976 501.0568 354.9906 501.5268 349.7736 Z M 491.3748 339.2456 C 495.8398 339.2456 498.1898 341.9716 498.1898 346.3426 L 498.1898 348.2696 C 498.1898 352.6876 495.8868 355.4136 491.4218 355.4136 C 487.3798 355.4136 484.5598 353.0166 484.5598 348.5516 L 484.5598 346.1076 C 484.5598 341.6426 487.3328 339.2456 491.3748 339.2456 Z" fill="black"/>
          </g>
          <g id="Graphic_45">
            <path d="M 522.3768 338.9636 C 520.3558 336.8486 517.4888 335.8146 514.3398 335.8616 C 511.0498 335.8616 508.2298 336.8016 506.2088 338.9636 C 504.1878 341.0786 503.1068 343.9926 503.1538 347.2826 C 503.1068 350.6666 504.1878 353.5806 506.2088 355.6486 C 508.1828 357.7636 510.9088 358.7976 514.0578 358.7976 L 514.2458 358.7976 C 517.4888 358.8446 520.3558 357.8106 522.3768 355.6486 C 524.3978 353.5806 525.4788 350.7136 525.4318 347.3296 C 525.4788 343.9456 524.3978 341.0316 522.3768 338.9636 Z M 522.0948 347.3296 C 522.1418 349.8676 521.4838 351.8416 520.0738 353.2516 C 518.7578 354.6146 516.7368 355.4136 514.2458 355.3196 C 511.8488 355.3666 509.8278 354.6146 508.5118 353.2516 C 507.1018 351.8416 506.4438 349.8676 506.4908 347.2826 C 506.4438 344.7916 507.1018 342.8176 508.5118 341.4076 C 509.8278 340.0446 511.8958 339.2926 514.3398 339.3396 C 516.7368 339.2456 518.7578 340.0446 520.0738 341.4076 C 521.4838 342.8176 522.1418 344.7916 522.0948 347.2826 Z" fill="black"/>
          </g>
          <g id="Graphic_46">
            <path d="M 527.0118 346.3426 C 527.0118 347.4706 526.9648 348.6456 527.0588 349.7736 C 527.5288 354.9906 530.7718 358.7976 535.8008 358.7976 C 542.1928 358.7976 544.0258 354.8496 544.0258 354.8496 L 544.0258 356.5886 C 544.0258 357.6226 544.7308 358.3746 545.7178 358.3746 L 549.7598 358.3746 L 549.7598 354.8966 L 547.4098 354.8966 L 547.4098 336.2846 L 544.0258 336.2846 L 544.0258 339.8096 C 544.0258 339.8096 542.0518 335.8616 535.8478 335.8616 C 533.2628 335.8616 531.0068 336.8956 529.3148 338.8696 C 527.6228 340.8436 527.0118 343.5226 527.0118 346.3426 Z M 530.3958 346.3426 C 530.3958 341.9716 532.7458 339.2456 537.2108 339.2456 C 541.2528 339.2456 544.0258 341.6426 544.0258 346.1076 L 544.0258 348.5516 C 544.0258 353.0166 541.2058 355.4136 537.1638 355.4136 C 532.6988 355.4136 530.3958 352.6876 530.3958 348.2696 Z" fill="black"/>
          </g>
          <g id="Graphic_47">
            <path d="M 553.3608 336.2846 L 553.3608 339.7626 L 558.1078 339.7626 L 558.1078 354.8966 L 553.4078 354.8966 L 553.4078 358.3746 L 568.6828 358.3746 L 568.6828 354.8966 L 561.4918 354.8966 L 561.4918 345.4496 C 561.4918 341.4546 563.7948 339.2456 567.6018 339.2456 C 568.7768 339.2456 570.2338 339.5276 571.3618 340.3736 L 573.6648 337.5066 C 572.2548 336.4256 570.6568 335.8616 568.8708 335.8616 C 563.5128 335.8616 561.4918 339.1516 561.4918 339.1516 L 561.4918 337.7886 C 561.4918 336.8956 560.6458 336.2846 559.7998 336.2846 Z" fill="black"/>
          </g>
          <g id="Graphic_48">
            <path d="M 574.3988 349.7736 C 574.8688 354.9906 578.1118 358.7976 583.1408 358.7976 C 589.5328 358.7976 591.3658 354.8496 591.3658 354.8496 L 591.3658 356.5886 C 591.3658 357.6226 592.0708 358.3746 593.0578 358.3746 L 597.0998 358.3746 L 597.0998 354.8966 L 594.7498 354.8966 L 594.7498 325.4746 L 591.3658 325.4746 L 591.3658 339.8096 C 591.3658 339.8096 589.3918 335.8616 583.1878 335.8616 C 580.6028 335.8616 578.3468 336.8956 576.6548 338.8696 C 574.9628 340.8436 574.3518 343.5226 574.3518 346.3426 C 574.3518 347.4706 574.3048 348.6456 574.3988 349.7736 Z M 577.7358 348.2696 L 577.7358 346.3426 C 577.7358 341.9716 580.0858 339.2456 584.5038 339.2456 C 588.5928 339.2456 591.3658 341.6426 591.3658 346.1076 L 591.3658 348.5516 C 591.3658 353.0166 588.5458 355.4136 584.5038 355.4136 C 580.0388 355.4136 577.7358 352.6876 577.7358 348.2696 Z" fill="black"/>
          </g>
        </g>
      </g>
    </g>
  </g>
</svg>
